<svg xmlns="http://www.w3.org/2000/svg" width="22.334" height="27.307" viewBox="0 0 22.334 27.307">
  <g id="applestore" transform="translate(0 0)">
    <path id="Path_782" data-name="Path 782" d="M107.586,164.694a4.512,4.512,0,0,1-2.417-1.434,17.161,17.161,0,0,1-3.046-4.83,16.083,16.083,0,0,1-1.309-6.347,9.087,9.087,0,0,1,1.125-4.5,6.632,6.632,0,0,1,4.38-3.3,4.5,4.5,0,0,1,2.333-.026c.772.228,1.533.5,2.291.772a2.566,2.566,0,0,0,1.99.111c.453-.2.924-.351,1.388-.521a7.457,7.457,0,0,1,2.345-.563,6.749,6.749,0,0,1,4.328,1.288,5.591,5.591,0,0,1,1.347,1.421c-.051.038-.09.07-.131.1a6.983,6.983,0,0,0-1.47,1.353,5.789,5.789,0,0,0-1.252,4.722,5.691,5.691,0,0,0,1.573,3.171,8.2,8.2,0,0,0,2.088,1.443c-.118.281-.351.734-.463,1.017a15.605,15.605,0,0,1-1.891,3.379,9.665,9.665,0,0,1-1.828,2.066,3.25,3.25,0,0,1-2.292.729,5.276,5.276,0,0,1-1.858-.524,5.35,5.35,0,0,0-3.971-.29c-.339.106-.659.273-1,.383A8.885,8.885,0,0,1,107.586,164.694Z" transform="translate(-100.813 -137.44)" fill="#fff"/>
    <g id="Group_3382" data-name="Group 3382" transform="translate(11.062 0)">
      <path id="Path_783" data-name="Path 783" d="M258.494,156.1a5.691,5.691,0,0,1-1.573-3.171,5.789,5.789,0,0,1,1.252-4.722,6.982,6.982,0,0,1,1.47-1.353c.041-.028.08-.06.131-.1a5.59,5.59,0,0,0-1.347-1.421,6.75,6.75,0,0,0-4.328-1.288,7.46,7.46,0,0,0-2.345.563c-.464.171-.935.325-1.388.521a1.937,1.937,0,0,1-.984.148V163.7a5.445,5.445,0,0,1,2.867.517,5.275,5.275,0,0,0,1.858.524,3.25,3.25,0,0,0,2.292-.729,9.665,9.665,0,0,0,1.828-2.066,15.606,15.606,0,0,0,1.891-3.379c.113-.283.345-.736.463-1.017A8.2,8.2,0,0,1,258.494,156.1Z" transform="translate(-249.311 -137.44)" fill="#ccc"/>
      <path id="Path_784" data-name="Path 784" d="M253.9,55.888a9.033,9.033,0,0,1-.019,1.3,6.008,6.008,0,0,1-2.223,3.882,4.524,4.524,0,0,1-3.195,1.106,3.858,3.858,0,0,1,.048-1.407,6.107,6.107,0,0,1,2.652-3.9,5.819,5.819,0,0,1,2.4-.941C253.6,55.921,253.825,55.888,253.9,55.888Z" transform="translate(-248.417 -55.888)" fill="#ccc"/>
    </g>
  </g>
</svg>
