<svg xmlns="http://www.w3.org/2000/svg" width="191.6" height="52.354" viewBox="0 0 191.6 52.354">
  <g id="NIC_Logo" transform="translate(-1137.267 -3547.507)">
    <path id="Path_2079" data-name="Path 2079" d="M378.643,68.58H387.6V83.2H355A26.056,26.056,0,0,1,378.657,68.58" transform="translate(858.461 3482.442)" fill="#fff"/>
    <rect id="Rectangle_6347" data-name="Rectangle 6347" width="17.246" height="1.195" transform="translate(1137.267 3598.4)" fill="#fff"/>
    <path id="Path_2069" data-name="Path 2069" d="M69.28,233.756V231.9H86.39l.072,1.856Z" transform="translate(1067.987 3362.675)" fill="#fff"/>
    <path id="Path_2070" data-name="Path 2070" d="M69.28,217.409V214.86H86.272l.053,2.549Z" transform="translate(1067.987 3375.171)" fill="#fff"/>
    <path id="Path_2071" data-name="Path 2071" d="M69.28,197.186v-3.7H86.1l.083,3.7Z" transform="translate(1067.987 3390.842)" fill="#fff"/>
    <path id="Path_2072" data-name="Path 2072" d="M69.28,170.5V164.78h48.977l.36,5.717H88.979L85.6,164.78l.413,5.717Z" transform="translate(1067.987 3411.896)" fill="#fff"/>
    <path id="Path_2073" data-name="Path 2073" d="M69.28,137.915V130.84H98.531l4.331,7.075-.408-7.075h16.163v7.075Z" transform="translate(1067.987 3436.786)" fill="#fff"/>
    <path id="Path_2074" data-name="Path 2074" d="M69.28,85.433V71.63l19.784.059,8.19,13.744Z" transform="translate(1067.987 3480.206)" fill="#fff"/>
    <rect id="Rectangle_6348" data-name="Rectangle 6348" width="16.163" height="13.803" transform="translate(1170.441 3551.835)" fill="#fff"/>
    <path id="Path_2075" data-name="Path 2075" d="M176.44,193.49v3.7H150.581l-2.451-3.7Z" transform="translate(1010.164 3390.842)" fill="#fff"/>
    <path id="Path_2076" data-name="Path 2076" d="M186.7,214.86v2.549H163.8l-1.677-2.549Z" transform="translate(999.905 3375.171)" fill="#fff"/>
    <path id="Path_2077" data-name="Path 2077" d="M194.935,231.9v1.856H174.566L173.35,231.9Z" transform="translate(991.67 3362.675)" fill="#fff"/>
    <path id="Path_2078" data-name="Path 2078" d="M201.879,246.24v1.195H183.615l-.795-1.195Z" transform="translate(984.725 3352.16)" fill="#fff"/>
    <rect id="Rectangle_6349" data-name="Rectangle 6349" width="16.878" height="1.195" transform="translate(1191.215 3598.4)" fill="#fff"/>
    <rect id="Rectangle_6350" data-name="Rectangle 6350" width="16.878" height="1.853" transform="translate(1191.215 3594.576)" fill="#fff"/>
    <rect id="Rectangle_6351" data-name="Rectangle 6351" width="16.878" height="2.549" transform="translate(1191.215 3590.032)" fill="#fff"/>
    <rect id="Rectangle_6352" data-name="Rectangle 6352" width="16.878" height="3.691" transform="translate(1191.215 3584.333)" fill="#fff"/>
    <rect id="Rectangle_6353" data-name="Rectangle 6353" width="16.878" height="5.717" transform="translate(1191.215 3576.676)" fill="#fff"/>
    <rect id="Rectangle_6354" data-name="Rectangle 6354" width="16.878" height="7.075" transform="translate(1191.215 3567.625)" fill="#fff"/>
    <rect id="Rectangle_6355" data-name="Rectangle 6355" width="16.878" height="13.803" transform="translate(1191.215 3551.835)" fill="#fff"/>
    <path id="Path_2080" data-name="Path 2080" d="M366.952,130.84a9.43,9.43,0,0,0-3.365,7.075H346.57a24.33,24.33,0,0,1,1.413-7.075Z" transform="translate(864.643 3436.786)" fill="#fff"/>
    <path id="Path_2081" data-name="Path 2081" d="M363.84,164.78A9.563,9.563,0,0,0,367.2,170.5h-19.51a22.966,22.966,0,0,1-.963-5.717Z" transform="translate(864.525 3411.896)" fill="#fff"/>
    <path id="Path_2082" data-name="Path 2082" d="M386.031,193.49v3.7H354.711a23.225,23.225,0,0,1-1.851-3.7Z" transform="translate(860.03 3390.842)" fill="#fff"/>
    <path id="Path_2083" data-name="Path 2083" d="M394.853,214.86v2.549H367.119a24.108,24.108,0,0,1-2.229-2.549Z" transform="translate(851.208 3375.171)" fill="#fff"/>
    <path id="Path_2084" data-name="Path 2084" d="M407.093,231.9v1.867H384.247a30.566,30.566,0,0,1-2.667-1.867Z" transform="translate(838.969 3362.675)" fill="#fff"/>
    <path id="Path_2085" data-name="Path 2085" d="M425.521,246.24v1.027H410.254s-.509.176-3.544-1.027Z" transform="translate(820.541 3352.16)" fill="#fff"/>
    <path id="Path_2086" data-name="Path 2086" d="M509.87,120.99h2.253l4.088,7.115V120.99h2.005v10.2h-2.152l-4.192-7.237v7.237h-2Z" transform="translate(744.891 3444.008)" fill="#fff"/>
    <path id="Path_2087" data-name="Path 2087" d="M549.183,133.374a3.251,3.251,0,0,0,.8-.171.6.6,0,0,0,.429-.563.661.661,0,0,0-.328-.64,2.11,2.11,0,0,0-.968-.176,1.288,1.288,0,0,0-1.013.344,1.419,1.419,0,0,0-.28.693H545.9a2.866,2.866,0,0,1,.563-1.627,3.3,3.3,0,0,1,2.723-1,4.889,4.889,0,0,1,2.229.493,1.885,1.885,0,0,1,.973,1.867v3.467c0,.243,0,.533.016.872a1.068,1.068,0,0,0,.12.533.685.685,0,0,0,.293.227v.291h-2.171a2.178,2.178,0,0,1-.128-.429q-.032-.2-.056-.456a4.122,4.122,0,0,1-.955.755,2.9,2.9,0,0,1-1.461.365,2.533,2.533,0,0,1-1.717-.584,2.066,2.066,0,0,1-.68-1.659,2.146,2.146,0,0,1,1.091-2.013,4.944,4.944,0,0,1,1.76-.485Zm1.216.923a2.133,2.133,0,0,1-.384.189,3.168,3.168,0,0,1-.533.133l-.453.085a3.029,3.029,0,0,0-.915.267.893.893,0,0,0-.469.837.872.872,0,0,0,.288.731,1.1,1.1,0,0,0,.7.224,2.088,2.088,0,0,0,1.2-.373,1.571,1.571,0,0,0,.571-1.363Z" transform="translate(718.655 3437.228)" fill="#fff"/>
    <path id="Path_2088" data-name="Path 2088" d="M574,126.837v-1.4h1.067v-2.1h1.971v2.1h1.229v1.4H577.03v4c0,.312.04.5.12.579a1.327,1.327,0,0,0,.725.115h.392V133l-.944.035a2.552,2.552,0,0,1-1.928-.483,1.435,1.435,0,0,1-.336-1.045v-4.675Z" transform="translate(697.862 3442.292)" fill="#fff"/>
    <path id="Path_2089" data-name="Path 2089" d="M597.281,122.579H595.26V120.76h2.021Zm-2.021.912h2.021v7.544H595.26Z" transform="translate(682.272 3444.177)" fill="#fff"/>
    <path id="Path_2090" data-name="Path 2090" d="M613.632,136.914a4.24,4.24,0,0,1-5.867,0,4.64,4.64,0,0,1,0-5.667,4.192,4.192,0,0,1,5.867,0,4.651,4.651,0,0,1,0,5.667m-1.6-1.091a3.5,3.5,0,0,0,0-3.493,1.779,1.779,0,0,0-2.688,0,3.486,3.486,0,0,0,0,3.493,1.773,1.773,0,0,0,2.688,0" transform="translate(673.81 3437.365)" fill="#fff"/>
    <path id="Path_2091" data-name="Path 2091" d="M647,130.879a2.476,2.476,0,0,1,.749,2.032v5.08H645.7v-4.6a2.132,2.132,0,0,0-.157-.915,1.128,1.128,0,0,0-1.112-.579,1.373,1.373,0,0,0-1.379.851,2.886,2.886,0,0,0-.195,1.147v4.085H640.87v-7.523H642.8v1.1a3.3,3.3,0,0,1,.725-.837,2.528,2.528,0,0,1,1.552-.459,2.934,2.934,0,0,1,1.92.613" transform="translate(648.825 3437.21)" fill="#fff"/>
    <path id="Path_2092" data-name="Path 2092" d="M674.678,133.374a3.278,3.278,0,0,0,.8-.171.6.6,0,0,0,.429-.563.661.661,0,0,0-.328-.64,2.109,2.109,0,0,0-.968-.176,1.282,1.282,0,0,0-1.013.344,1.445,1.445,0,0,0-.283.693H671.4a2.885,2.885,0,0,1,.56-1.627,3.3,3.3,0,0,1,2.723-1,4.893,4.893,0,0,1,2.232.493,1.89,1.89,0,0,1,.976,1.867v3.467c0,.243,0,.533.013.872a1.067,1.067,0,0,0,.117.533.72.72,0,0,0,.293.227v.291h-2.165a2.193,2.193,0,0,1-.125-.429,4.135,4.135,0,0,1-.056-.456,4.126,4.126,0,0,1-.955.755,2.9,2.9,0,0,1-1.461.365,2.536,2.536,0,0,1-1.72-.584,2.072,2.072,0,0,1-.677-1.659,2.144,2.144,0,0,1,1.091-2.013,4.928,4.928,0,0,1,1.76-.485Zm1.229.933a2.159,2.159,0,0,1-.387.189,3.065,3.065,0,0,1-.533.133l-.453.085a3.032,3.032,0,0,0-.915.267.9.9,0,0,0-.469.837.877.877,0,0,0,.285.731,1.107,1.107,0,0,0,.7.224,2.1,2.1,0,0,0,1.2-.373,1.571,1.571,0,0,0,.571-1.363Z" transform="translate(626.623 3437.228)" fill="#fff"/>
    <rect id="Rectangle_6356" data-name="Rectangle 6356" width="1.992" height="10.203" transform="translate(1306.138 3564.999)" fill="#fff"/>
    <rect id="Rectangle_6357" data-name="Rectangle 6357" width="2.136" height="10.2" transform="translate(1254.619 3576.967)" fill="#fff"/>
    <path id="Path_2093" data-name="Path 2093" d="M529.945,175.751a2.472,2.472,0,0,1,.747,2.032v5.067h-2.04v-4.576a2.134,2.134,0,0,0-.157-.915,1.128,1.128,0,0,0-1.112-.579,1.376,1.376,0,0,0-1.379.851,2.892,2.892,0,0,0-.195,1.149v4.083h-1.99v-7.531h1.915v1.1a3.3,3.3,0,0,1,.725-.837,2.509,2.509,0,0,1,1.549-.459,2.933,2.933,0,0,1,1.925.613" transform="translate(734.661 3404.307)" fill="#fff"/>
    <path id="Path_2094" data-name="Path 2094" d="M557.037,165.5l.419.032v1.6q-.168-.019-.56-.032a.658.658,0,0,0-.533.173.635.635,0,0,0-.149.405v.635h1.307v1.395h-1.307v6.083h-1.976v-6.077H553.12v-1.395h1.088v-.483a2.522,2.522,0,0,1,.413-1.667c.288-.453.984-.677,2.088-.677h.341" transform="translate(713.174 3411.375)" fill="#fff"/>
    <path id="Path_2095" data-name="Path 2095" d="M578.352,181.794a4.239,4.239,0,0,1-5.867,0,4.64,4.64,0,0,1,0-5.667,4.192,4.192,0,0,1,5.867,0,4.651,4.651,0,0,1,0,5.667m-1.6-1.091a3.5,3.5,0,0,0,0-3.493,1.756,1.756,0,0,0-2.667,0,3.485,3.485,0,0,0,0,3.493,1.751,1.751,0,0,0,2.667,0" transform="translate(699.681 3404.454)" fill="#fff"/>
    <path id="Path_2096" data-name="Path 2096" d="M609.777,175.157l.171.013v2.019c-.125,0-.237-.021-.336-.027h-.237a1.64,1.64,0,0,0-1.6.776,2.991,2.991,0,0,0-.229,1.333v3.605H605.54v-7.542h1.9v1.315a4.227,4.227,0,0,1,.8-1.032,2.208,2.208,0,0,1,1.456-.464h.093" transform="translate(674.733 3404.291)" fill="#fff"/>
    <path id="Path_2097" data-name="Path 2097" d="M635.353,175.4a2.216,2.216,0,0,1,.888.677,2.181,2.181,0,0,1,.432.968,6.543,6.543,0,0,1,.069,1.115v4.755H634.7v-4.8a1.53,1.53,0,0,0-.141-.707,1,1,0,0,0-.979-.533,1.139,1.139,0,0,0-1.136.677,2.075,2.075,0,0,0-.163.867v4.491h-2.005v-4.5a2.53,2.53,0,0,0-.139-.979.981.981,0,0,0-.987-.547,1.182,1.182,0,0,0-1.144.547,2.106,2.106,0,0,0-.16.928v4.533H625.83v-7.523h1.912v1.1a3.2,3.2,0,0,1,.7-.837,2.8,2.8,0,0,1,2.915-.064,2.22,2.22,0,0,1,.653.9,2.525,2.525,0,0,1,.971-.976,3.015,3.015,0,0,1,1.368-.309,2.666,2.666,0,0,1,.995.195" transform="translate(659.854 3404.27)" fill="#fff"/>
    <path id="Path_2098" data-name="Path 2098" d="M674.678,178.3a3.225,3.225,0,0,0,.8-.176.592.592,0,0,0,.429-.56.661.661,0,0,0-.328-.64,2.109,2.109,0,0,0-.968-.176,1.275,1.275,0,0,0-1.013.347,1.425,1.425,0,0,0-.283.691H671.4a2.885,2.885,0,0,1,.56-1.627,3.294,3.294,0,0,1,2.723-.995,4.925,4.925,0,0,1,2.232.488,1.9,1.9,0,0,1,.976,1.867v3.467c0,.24,0,.533.013.872a1.067,1.067,0,0,0,.117.533.72.72,0,0,0,.293.227v.291h-2.165a2.137,2.137,0,0,1-.125-.429,4.135,4.135,0,0,1-.056-.456,4.044,4.044,0,0,1-.955.752,2.9,2.9,0,0,1-1.461.368,2.536,2.536,0,0,1-1.72-.584,2.072,2.072,0,0,1-.677-1.659,2.144,2.144,0,0,1,1.091-2.013A4.928,4.928,0,0,1,674,178.4Zm1.216.917a2.177,2.177,0,0,1-.387.192,3.289,3.289,0,0,1-.533.136l-.453.083a2.952,2.952,0,0,0-.915.267.9.9,0,0,0-.469.837.878.878,0,0,0,.285.731,1.107,1.107,0,0,0,.7.224,2.078,2.078,0,0,0,1.2-.373,1.571,1.571,0,0,0,.571-1.363Z" transform="translate(626.623 3404.28)" fill="#fff"/>
    <path id="Path_2099" data-name="Path 2099" d="M699.45,171.712V170.3h1.067v-2.1h1.971v2.1h1.235v1.408h-1.235V175.7c0,.309.037.5.117.576a1.334,1.334,0,0,0,.725.115h.392v1.475l-.942.035a2.546,2.546,0,0,1-1.928-.483,1.443,1.443,0,0,1-.336-1.048v-4.656Z" transform="translate(605.866 3409.388)" fill="#fff"/>
    <path id="Path_2100" data-name="Path 2100" d="M722.759,167.459H720.74V165.64h2.019Zm-2.019.9h2.019V175.9H720.74Z" transform="translate(590.254 3411.266)" fill="#fff"/>
    <path id="Path_2101" data-name="Path 2101" d="M737.447,178.011a1.731,1.731,0,0,0-.288-.763,1.208,1.208,0,0,0-1.043-.456,1.371,1.371,0,0,0-1.379.989,4,4,0,0,0-.2,1.392,3.7,3.7,0,0,0,.2,1.333,1.333,1.333,0,0,0,1.333.941,1.19,1.19,0,0,0,.992-.373,1.866,1.866,0,0,0,.36-.968h2.032a3.25,3.25,0,0,1-.659,1.7,3.74,3.74,0,0,1-5.469.2,4.283,4.283,0,0,1-.867-2.8,4.39,4.39,0,0,1,.957-3.019,3.369,3.369,0,0,1,2.643-1.083,4,4,0,0,1,2.347.637A2.914,2.914,0,0,1,739.474,178Z" transform="translate(581.659 3404.325)" fill="#fff"/>
    <path id="Path_2102" data-name="Path 2102" d="M763.624,180.357a1.3,1.3,0,0,0,.267.747,1.866,1.866,0,0,0,1.376.395,2.134,2.134,0,0,0,.936-.173.552.552,0,0,0,.347-.517.56.56,0,0,0-.267-.507,11.274,11.274,0,0,0-2.083-.595,4.357,4.357,0,0,1-1.829-.8,1.729,1.729,0,0,1-.533-1.36,2.336,2.336,0,0,1,.829-1.795A3.349,3.349,0,0,1,765,175a4.315,4.315,0,0,1,2.325.565,2.407,2.407,0,0,1,1.032,1.947h-1.99a1.132,1.132,0,0,0-.219-.6,1.375,1.375,0,0,0-1.12-.4,1.629,1.629,0,0,0-.928.2.581.581,0,0,0-.267.472.514.514,0,0,0,.293.491,12.6,12.6,0,0,0,2.08.533,3.854,3.854,0,0,1,1.784.837,1.9,1.9,0,0,1,.587,1.419,2.288,2.288,0,0,1-.843,1.832,4.015,4.015,0,0,1-2.608.709,4.057,4.057,0,0,1-2.667-.752,2.43,2.43,0,0,1-.856-1.912Z" transform="translate(560.285 3404.405)" fill="#fff"/>
    <path id="Path_2103" data-name="Path 2103" d="M509.722,212.906a4.825,4.825,0,0,1,6.923.429,3.664,3.664,0,0,1,.707,1.9H515.2a2.874,2.874,0,0,0-.533-1.107,2.135,2.135,0,0,0-1.7-.667,2.1,2.1,0,0,0-1.813.939,4.564,4.564,0,0,0-.664,2.667,3.971,3.971,0,0,0,.7,2.571,2.208,2.208,0,0,0,1.779.856,2.032,2.032,0,0,0,1.691-.736,3.237,3.237,0,0,0,.533-1.184h2.133a4.585,4.585,0,0,1-1.413,2.715,4.144,4.144,0,0,1-2.9,1.035,4.424,4.424,0,0,1-3.467-1.413,6.639,6.639,0,0,1,.173-8.008" transform="translate(746.057 3377.531)" fill="#fff"/>
    <path id="Path_2104" data-name="Path 2104" d="M550.928,221.976a3.062,3.062,0,0,1,1.315,1.115,3.7,3.7,0,0,1,.608,1.56,9.791,9.791,0,0,1,.067,1.5H547.37a1.836,1.836,0,0,0,.8,1.6,2.014,2.014,0,0,0,1.1.285,1.542,1.542,0,0,0,1.515-.867h2.035a2.467,2.467,0,0,1-.739,1.365,3.71,3.71,0,0,1-2.864,1.1,4.181,4.181,0,0,1-2.685-.928,3.64,3.64,0,0,1-1.16-3.019,4.067,4.067,0,0,1,1.048-3.008,3.685,3.685,0,0,1,2.723-1.045,4.352,4.352,0,0,1,1.792.355m-2.995,1.691a2.053,2.053,0,0,0-.533,1.168h3.432a1.635,1.635,0,0,0-.533-1.189,1.741,1.741,0,0,0-1.181-.411,1.6,1.6,0,0,0-1.189.432" transform="translate(718.857 3370.208)" fill="#fff"/>
    <path id="Path_2105" data-name="Path 2105" d="M583.115,222.291a2.488,2.488,0,0,1,.749,2.032v5.067h-2.04v-4.584a2.11,2.11,0,0,0-.16-.912,1.124,1.124,0,0,0-1.109-.584,1.379,1.379,0,0,0-1.381.853,2.951,2.951,0,0,0-.195,1.149V229.4H577v-7.531h1.928v1.1a3.345,3.345,0,0,1,.723-.837,2.528,2.528,0,0,1,1.552-.456,2.934,2.934,0,0,1,1.923.611" transform="translate(695.662 3370.178)" fill="#fff"/>
    <path id="Path_2106" data-name="Path 2106" d="M606.2,218.229v-1.405h1.067v-2.1h1.971v2.1h1.235v1.405h-1.235v4a.893.893,0,0,0,.109.565,1.3,1.3,0,0,0,.725.115h.392v1.475l-.941.035a2.545,2.545,0,0,1-1.931-.485,1.436,1.436,0,0,1-.333-1.043v-4.661Z" transform="translate(674.249 3375.274)" fill="#fff"/>
    <path id="Path_2107" data-name="Path 2107" d="M630.648,221.677h.173V223.7c-.125-.016-.24-.024-.336-.029h-.237a1.672,1.672,0,0,0-1.613.779,2.964,2.964,0,0,0-.232,1.333v3.605h-2v-7.536h1.9v1.315a4.085,4.085,0,0,1,.8-1.029,2.206,2.206,0,0,1,1.453-.464h.093" transform="translate(659.436 3370.176)" fill="#fff"/>
    <path id="Path_2108" data-name="Path 2108" d="M650.138,221.976a3.062,3.062,0,0,1,1.315,1.115,3.628,3.628,0,0,1,.608,1.56,9.775,9.775,0,0,1,.067,1.5H646.58a1.836,1.836,0,0,0,.8,1.6,2.024,2.024,0,0,0,1.1.285,1.691,1.691,0,0,0,1.107-.347,1.653,1.653,0,0,0,.408-.52h2.032a2.443,2.443,0,0,1-.736,1.365,3.71,3.71,0,0,1-2.864,1.1,4.179,4.179,0,0,1-2.683-.928,3.636,3.636,0,0,1-1.163-3.019,4.078,4.078,0,0,1,1.048-3.008,3.686,3.686,0,0,1,2.723-1.045,4.344,4.344,0,0,1,1.792.355m-2.979,1.7a2.069,2.069,0,0,0-.533,1.168h3.432a1.635,1.635,0,0,0-.533-1.189,1.741,1.741,0,0,0-1.181-.411,1.6,1.6,0,0,0-1.189.432" transform="translate(646.104 3370.208)" fill="#fff"/>
    <path id="Path_2109" data-name="Path 2109" d="M666.609,69.583c-.213-.325-.76-1.1-1.867-2.667a32.481,32.481,0,0,1-1.952-2.933l1.371-.936a4.8,4.8,0,0,0,.315.624.752.752,0,0,0,.552.411h.051a.371.371,0,0,0,.371-.267,1.126,1.126,0,0,0,.027-.267V61.463h-1.944V59.922h4.541l-.211-.285c-.067-.091-.109-.16-.136-.2A2.665,2.665,0,0,1,667.38,58a2.21,2.21,0,0,1,.869-1.725,3.557,3.557,0,0,1,2.245-.656,4.8,4.8,0,0,1,3.451,1.715,9.162,9.162,0,0,1,1.435,2.445v9.75h-1.955V61.463H671.54v8.064h-1.952V65.4h-.835l-.84-1.451,1.659.019v-2.5H667.4V63.77a1.623,1.623,0,0,1-.352,1.013,1.83,1.83,0,0,1-1.067.7l-.267.069.176.219c.195.237.453.557.773.971.44.485.915,1.067,1.419,1.712Zm3.68-12.491a2.035,2.035,0,0,0-.315.024,1.168,1.168,0,0,0-.824.493,1.347,1.347,0,0,0-.205.76,1.411,1.411,0,0,0,.915,1.379,2.154,2.154,0,0,0,.717.181h2.043c.8,0,.8,0,.8-.181v-.059a3.7,3.7,0,0,0-3.134-2.605" transform="translate(632.75 3491.952)" fill="#fff"/>
    <path id="Path_2110" data-name="Path 2110" d="M666.609,69.583c-.213-.325-.76-1.1-1.867-2.667a32.481,32.481,0,0,1-1.952-2.933l1.371-.936a4.8,4.8,0,0,0,.315.624.752.752,0,0,0,.552.411h.051a.371.371,0,0,0,.371-.267,1.126,1.126,0,0,0,.027-.267V61.463h-1.944V59.922h4.541l-.211-.285c-.067-.091-.109-.16-.136-.2A2.665,2.665,0,0,1,667.38,58a2.21,2.21,0,0,1,.869-1.725,3.557,3.557,0,0,1,2.245-.656,4.8,4.8,0,0,1,3.451,1.715,9.162,9.162,0,0,1,1.435,2.445v9.75h-1.955V61.463H671.54v8.064h-1.952V65.4h-.835l-.84-1.451,1.659.019v-2.5H667.4V63.77a1.623,1.623,0,0,1-.352,1.013,1.83,1.83,0,0,1-1.067.7l-.267.069.176.219c.195.237.453.557.773.971.44.485.915,1.067,1.419,1.712Zm3.68-12.491a2.035,2.035,0,0,0-.315.024,1.168,1.168,0,0,0-.824.493,1.347,1.347,0,0,0-.205.76,1.411,1.411,0,0,0,.915,1.379,2.154,2.154,0,0,0,.717.181h2.043c.8,0,.8,0,.8-.181v-.059a3.7,3.7,0,0,0-3.131-2.605Z" transform="translate(632.75 3491.952)" fill="#fff"/>
    <path id="Path_2111" data-name="Path 2111" d="M592.2,70.094c-.248-.2-.534-.453-.816-.736l-.045-.048h-.613a2.133,2.133,0,0,1-1.264-.419,1.1,1.1,0,0,1-.48-.957,1.051,1.051,0,0,1,.339-.8,1.253,1.253,0,0,1,.9-.317,1.6,1.6,0,0,1,.56.107A2.774,2.774,0,0,1,592,67.969a.2.2,0,0,0,.173.085.8.8,0,0,0,.293-.077l.077-.029a1.536,1.536,0,0,0,.595-.445,1.491,1.491,0,0,0,.3-1.253.516.516,0,0,0-.1-.221.315.315,0,0,0-.248-.109.62.62,0,0,0-.131.016,2.688,2.688,0,0,0-.427.155c-.1.043-.205.088-.312.12a1.692,1.692,0,0,1-.485.069,2.134,2.134,0,0,1-.8-.16,3.035,3.035,0,0,1-1.067-.784,2.975,2.975,0,0,1-.96-1.883.992.992,0,0,1,.371-.781,1.149,1.149,0,0,1,.8-.3h2.742V61.3h-5.568v8.064h-1.952V61.3h-1.824v8.064H581.51v-3.7l-.221.088a.715.715,0,0,1-.285.053,1.121,1.121,0,0,1-.24-.027l-.213-.048.016.235a2.582,2.582,0,0,1-.683,2.179,3.013,3.013,0,0,1-2.091.664,3.346,3.346,0,0,1-2.221-.971,7.525,7.525,0,0,1-1.981-2.933l1.427-.6c.1.187.187.379.267.565a9.146,9.146,0,0,0,.555,1.045,2.728,2.728,0,0,0,1.6,1.256,1.51,1.51,0,0,0,.341.04,1.016,1.016,0,0,0,.688-.237,1.315,1.315,0,0,0,.224-1.432,1.367,1.367,0,0,0-1.144-.712h-.795c-.1-.219-.344-.755-.483-1.067.267-.072.645-.211.9-.307a1.368,1.368,0,0,0,.723-.533,1.141,1.141,0,0,0,.171-.621.829.829,0,0,0-.136-.5.771.771,0,0,0-.643-.3,1.733,1.733,0,0,0-1.037.451,3.744,3.744,0,0,0-.584.579c-.411-.931-.608-1.379-.723-1.6a1.653,1.653,0,0,1,.171-.149,3.693,3.693,0,0,1,2.229-.765,2.749,2.749,0,0,1,1.845.624,1.949,1.949,0,0,1,.715,1.579,1.987,1.987,0,0,1-.509,1.419l-.176.189.229.1a2.449,2.449,0,0,1,.32.181,1.686,1.686,0,0,0,.8.325h.048s.9-.1.9-.4V59.769h11.715l-.283-.3c-.3-.325-.8-.88-.877-.995a1.955,1.955,0,0,1-.293-1.117,2.075,2.075,0,0,1,1.419-1.813,3.314,3.314,0,0,1,.928-.141,1.9,1.9,0,0,1,.8.152c.579.267.629.44.533,1.384l-.064-.024c-.125-.045-.237-.083-.344-.115a2.726,2.726,0,0,0-.7-.115,1.142,1.142,0,0,0-.573.128,1.027,1.027,0,0,0-.507.771,1.136,1.136,0,0,0,.267.936c.059.059.128.149.2.237s.149.189.208.251c.152.165.285.288.421.419l.267.243v3.992h-3.787l.152.267a5.683,5.683,0,0,0,.373.611l.061.075a1.334,1.334,0,0,0,.645.52.8.8,0,0,0,.227.032,1.793,1.793,0,0,0,.635-.157l.107-.04a3.467,3.467,0,0,1,1.173-.208,1.421,1.421,0,0,1,.723.152c.459.267.512.872.509,1.376a2.714,2.714,0,0,1-1.64,2.5c-.083.048-.144.085-.208.115l-.288.133.267.179c.36.237,1.624.952,1.744,1.019l-.032.045-1.067,1.232Z" transform="translate(698.163 3492.11)" fill="#fff"/>
    <path id="Path_2112" data-name="Path 2112" d="M592.2,70.094c-.248-.2-.534-.453-.816-.736l-.045-.048h-.613a2.133,2.133,0,0,1-1.264-.419,1.1,1.1,0,0,1-.48-.957,1.051,1.051,0,0,1,.339-.8,1.253,1.253,0,0,1,.9-.317,1.6,1.6,0,0,1,.56.107A2.774,2.774,0,0,1,592,67.969a.2.2,0,0,0,.173.085.8.8,0,0,0,.293-.077l.077-.029a1.536,1.536,0,0,0,.595-.445,1.491,1.491,0,0,0,.3-1.253.516.516,0,0,0-.1-.221.315.315,0,0,0-.248-.109.62.62,0,0,0-.131.016,2.688,2.688,0,0,0-.427.155c-.1.043-.205.088-.312.12a1.692,1.692,0,0,1-.485.069,2.134,2.134,0,0,1-.8-.16,3.035,3.035,0,0,1-1.067-.784,2.975,2.975,0,0,1-.96-1.883.992.992,0,0,1,.371-.781,1.149,1.149,0,0,1,.8-.3h2.742V61.3h-5.568v8.064h-1.952V61.3h-1.824v8.064H581.51v-3.7l-.221.088a.715.715,0,0,1-.285.053,1.121,1.121,0,0,1-.24-.027l-.213-.048.016.235a2.582,2.582,0,0,1-.683,2.179,3.013,3.013,0,0,1-2.091.664,3.346,3.346,0,0,1-2.221-.971,7.525,7.525,0,0,1-1.981-2.933l1.427-.6c.1.187.187.379.267.565a9.146,9.146,0,0,0,.555,1.045,2.728,2.728,0,0,0,1.6,1.256,1.51,1.51,0,0,0,.341.04,1.016,1.016,0,0,0,.688-.237,1.315,1.315,0,0,0,.224-1.432,1.367,1.367,0,0,0-1.144-.712h-.795c-.1-.219-.344-.755-.483-1.067.267-.072.645-.211.9-.307a1.368,1.368,0,0,0,.723-.533,1.141,1.141,0,0,0,.171-.621.829.829,0,0,0-.136-.5.771.771,0,0,0-.643-.3,1.733,1.733,0,0,0-1.037.451,3.744,3.744,0,0,0-.584.579c-.411-.931-.608-1.379-.723-1.6a1.653,1.653,0,0,1,.171-.149,3.693,3.693,0,0,1,2.229-.765,2.749,2.749,0,0,1,1.845.624,1.949,1.949,0,0,1,.715,1.579,1.987,1.987,0,0,1-.509,1.419l-.176.189.229.1a2.449,2.449,0,0,1,.32.181,1.686,1.686,0,0,0,.8.325h.048s.9-.1.9-.4V59.769h11.715l-.283-.3c-.3-.325-.8-.88-.877-.995a1.955,1.955,0,0,1-.293-1.117,2.075,2.075,0,0,1,1.419-1.813,3.314,3.314,0,0,1,.928-.141,1.9,1.9,0,0,1,.8.152c.579.267.629.44.533,1.384l-.064-.024c-.125-.045-.237-.083-.344-.115a2.726,2.726,0,0,0-.7-.115,1.142,1.142,0,0,0-.573.128,1.027,1.027,0,0,0-.507.771,1.136,1.136,0,0,0,.267.936c.059.059.128.149.2.237s.149.189.208.251c.152.165.285.288.421.419l.267.243v3.992h-3.787l.152.267a5.683,5.683,0,0,0,.373.611l.061.075a1.334,1.334,0,0,0,.645.52.8.8,0,0,0,.227.032,1.793,1.793,0,0,0,.635-.157l.107-.04a3.467,3.467,0,0,1,1.173-.208,1.421,1.421,0,0,1,.723.152c.459.267.512.872.509,1.376a2.714,2.714,0,0,1-1.64,2.5c-.083.048-.144.085-.208.115l-.288.133.267.179c.36.237,1.624.952,1.744,1.019l-.032.045-1.067,1.232Z" transform="translate(698.163 3492.11)" fill="#fff"/>
    <path id="Path_2113" data-name="Path 2113" d="M515.191,83.441a.649.649,0,0,1-.163-.021c-.267-.064-.44-.328-.608-.581-.035-.053-.069-.107-.1-.155l-.224-.32h.181a1.117,1.117,0,0,0,.355-.051.563.563,0,0,0,.251-.163.392.392,0,0,0,.083-.371.486.486,0,0,0-.2-.248l-.032-.027-.368-.293-3.869-3.2V71.79h14.694v9.6h-1.955V76.8h-2.368v1.008a.893.893,0,0,1-.1.411.509.509,0,0,1-.531.331h-.04c-.144,0-.5-.157-1.333-1.128s-.949-1.352-.949-1.453c0-.533.267-.781.827-.781H523.2V73.323h-6.552V76.5a1.232,1.232,0,0,1-.459.992,1.91,1.91,0,0,1-1.264.485l-1.493-1.245a2.812,2.812,0,0,0,1.088-.149.336.336,0,0,0,.171-.365V73.326h-2.261v4.267l1.1.92s1.424,1.189,1.928,1.6l.733.616a1.523,1.523,0,0,1,.621,1.04,1.235,1.235,0,0,1-.2.856,1.731,1.731,0,0,1-.464.435,1.866,1.866,0,0,1-.957.371" transform="translate(744.436 3480.088)" fill="#fff"/>
    <path id="Path_2114" data-name="Path 2114" d="M515.191,83.441a.649.649,0,0,1-.163-.021c-.267-.064-.44-.328-.608-.581-.035-.053-.069-.107-.1-.155l-.224-.32h.181a1.117,1.117,0,0,0,.355-.051.563.563,0,0,0,.251-.163.392.392,0,0,0,.083-.371.486.486,0,0,0-.2-.248l-.032-.027-.368-.293-3.869-3.2V71.79h14.694v9.6h-1.955V76.8h-2.368v1.008a.893.893,0,0,1-.1.411.509.509,0,0,1-.531.331h-.04c-.144,0-.5-.157-1.333-1.128s-.949-1.352-.949-1.453c0-.533.267-.781.827-.781H523.2V73.323h-6.552V76.5a1.232,1.232,0,0,1-.459.992,1.91,1.91,0,0,1-1.264.485l-1.493-1.245a2.812,2.812,0,0,0,1.088-.149.336.336,0,0,0,.171-.365V73.326h-2.261v4.267l1.1.92s1.424,1.189,1.928,1.6l.733.616a1.523,1.523,0,0,1,.621,1.04,1.235,1.235,0,0,1-.2.856,1.731,1.731,0,0,1-.464.435A1.867,1.867,0,0,1,515.191,83.441Z" transform="translate(744.436 3480.088)" fill="#fff"/>
    <path id="Path_2115" data-name="Path 2115" d="M600.788,73.311H599.02V71.77h4.371" transform="translate(679.515 3480.103)" fill="#fff"/>
    <path id="Path_2116" data-name="Path 2116" d="M600.788,73.311H599.02V71.77h4.371" transform="translate(679.515 3480.103)" fill="#fff"/>
    <path id="Path_2117" data-name="Path 2117" d="M553.34,71.77h4.368v1.541H555.94" transform="translate(713.013 3480.103)" fill="#fff"/>
    <path id="Path_2118" data-name="Path 2118" d="M553.34,71.77h4.368v1.541H555.94" transform="translate(713.013 3480.103)" fill="#fff"/>
    <path id="Path_2119" data-name="Path 2119" d="M639.79,71.77h4.368v1.541h-1.765" transform="translate(649.617 3480.103)" fill="#fff"/>
    <path id="Path_2120" data-name="Path 2120" d="M639.79,71.77h4.368v1.541h-1.765" transform="translate(649.617 3480.103)" fill="#fff"/>
  </g>
</svg>
