<svg xmlns="http://www.w3.org/2000/svg" width="22.484" height="24.762" viewBox="0 0 22.484 24.762">
  <g id="Playstore" transform="translate(0 0)">
    <g id="Group_3383" data-name="Group 3383" transform="translate(0 0.001)">
      <path id="Path_785" data-name="Path 785" d="M64.135,8.505C61.259,6.9,56.642,4.313,49.48.3A1.727,1.727,0,0,0,47.962.1L60.249,12.392Z" transform="translate(-46.781 -0.012)" fill="#32bbff"/>
      <path id="Path_786" data-name="Path 786" d="M24.73,1.93a1.765,1.765,0,0,0-.261.112,1.728,1.728,0,0,0-.919,1.536V24.856a1.728,1.728,0,0,0,.919,1.536,1.788,1.788,0,0,0,.261.112L37.017,14.217Z" transform="translate(-23.549 -1.837)" fill="#32bbff"/>
      <path id="Path_787" data-name="Path 787" d="M60.243,255.98,47.956,268.267a1.709,1.709,0,0,0,1.519-.2c6.945-3.889,11.51-6.442,14.42-8.065l.239-.134Z" transform="translate(-46.776 -243.6)" fill="#32bbff"/>
    </g>
    <path id="Path_788" data-name="Path 788" d="M23.549,255.98v10.639a1.728,1.728,0,0,0,.919,1.536,1.789,1.789,0,0,0,.261.112L37.017,255.98Z" transform="translate(-23.549 -243.6)" fill="#2c9fd9"/>
    <path id="Path_789" data-name="Path 789" d="M44.34.292a1.732,1.732,0,0,0-1.78-.087L54.923,12.567,59,8.494C56.119,6.885,51.5,4.3,44.34.292Z" transform="translate(-41.642 0)" fill="#29cc5e"/>
    <path id="Path_790" data-name="Path 790" d="M54.923,252.126,42.561,264.488a1.72,1.72,0,0,0,1.78-.086c6.945-3.889,11.51-6.442,14.42-8.065L59,256.2Z" transform="translate(-41.642 -239.932)" fill="#d93f21"/>
    <path id="Path_791" data-name="Path 791" d="M303.693,176.877a1.723,1.723,0,0,0-.887-1.514s-1.1-.615-4.482-2.506l-4.02,4.02,4.024,4.024c3.343-1.877,4.478-2.51,4.478-2.51A1.723,1.723,0,0,0,303.693,176.877Z" transform="translate(-281.208 -164.497)" fill="#ffd500"/>
    <path id="Path_792" data-name="Path 792" d="M302.806,257.495a1.723,1.723,0,0,0,.887-1.514H294.3L298.327,260C301.67,258.127,302.806,257.495,302.806,257.495Z" transform="translate(-281.208 -243.6)" fill="#fa0"/>
  </g>
</svg>
