<svg xmlns="http://www.w3.org/2000/svg" width="83" height="78" viewBox="0 0 83 78">
  <g id="Group_18810" data-name="Group 18810" transform="translate(12063 -1479)">
    <rect id="Rectangle_9169" data-name="Rectangle 9169" width="83" height="78" rx="4" transform="translate(-12063 1479)" fill="#213b75"/>
    <g id="Group_18801" data-name="Group 18801" transform="translate(-12054.827 1485)">
      <path id="Path_20117" data-name="Path 20117" d="M6.473-16a10.76,10.76,0,0,1-2.766-.324,5.779,5.779,0,0,1-1.886-.81q-.579-.44-.579-.787a2.076,2.076,0,0,1,.463-1.1q.463-.66.764-.66a1.644,1.644,0,0,1,.579.255,9.933,9.933,0,0,0,1.412.6,5.129,5.129,0,0,0,1.62.231,2.957,2.957,0,0,0,1.748-.5,1.706,1.706,0,0,0,.706-1.493,1.585,1.585,0,0,0-.359-1.053,3.041,3.041,0,0,0-.891-.718q-.532-.289-1.481-.683l-.81-.347a9.47,9.47,0,0,1-1.782-.984,3.988,3.988,0,0,1-1.18-1.4,4.744,4.744,0,0,1-.463-2.222A4.2,4.2,0,0,1,2.3-30.474a4.409,4.409,0,0,1,1.956-1.539,6.936,6.936,0,0,1,2.685-.509,8.665,8.665,0,0,1,2.014.231,4.163,4.163,0,0,1,1.5.625q.486.347.486.694a2.275,2.275,0,0,1-.393,1.076q-.393.66-.694.66a1.049,1.049,0,0,1-.37-.116q-.255-.116-.393-.185a4.978,4.978,0,0,0-1.967-.393,2.819,2.819,0,0,0-1.84.5,1.579,1.579,0,0,0-.59,1.261,1.69,1.69,0,0,0,.347,1.1,2.563,2.563,0,0,0,.856.683q.509.255,1.5.648A16.148,16.148,0,0,1,9.575-24.7a4.526,4.526,0,0,1,1.47,1.447,4.3,4.3,0,0,1,.613,2.4,4.44,4.44,0,0,1-1.481,3.646A5.647,5.647,0,0,1,6.473-16Z" transform="translate(-1.242 42.361)" fill="#fff"/>
      <path id="Path_20116" data-name="Path 20116" d="M6.339-15.951q-1.227,0-1.227-.671V-29.608H1.177A.525.525,0,0,1,.7-29.839a1.457,1.457,0,0,1-.15-.764v-.6a1.457,1.457,0,0,1,.15-.764.525.525,0,0,1,.475-.231h10.9a.525.525,0,0,1,.475.231,1.457,1.457,0,0,1,.15.764v.6a1.457,1.457,0,0,1-.15.764.525.525,0,0,1-.475.231H8.167v12.985q0,.671-1.227.671Z" transform="translate(9.798 42.201)" fill="#fff"/>
      <path id="Path_20118" data-name="Path 20118" d="M9.609-15.648q-3.8,0-5.6-1.97t-1.8-6.136q0-8.061,7.495-8.061a10.885,10.885,0,0,1,2.242.238,6.206,6.206,0,0,1,1.766.6q.566.317.566.679a1.749,1.749,0,0,1-.215.713,3.841,3.841,0,0,1-.5.781q-.283.34-.509.34a2.812,2.812,0,0,1-.543-.226,6.552,6.552,0,0,0-1.189-.408,6.806,6.806,0,0,0-1.664-.181A3.973,3.973,0,0,0,6.337-27.92a6.706,6.706,0,0,0-1.076,4.189,6.722,6.722,0,0,0,1.076,4.166,3.889,3.889,0,0,0,3.272,1.381,6.453,6.453,0,0,0,1.811-.226,9.576,9.576,0,0,0,1.472-.566,1.425,1.425,0,0,1,.5-.181.7.7,0,0,1,.509.328,3.229,3.229,0,0,1,.442.759,1.887,1.887,0,0,1,.181.611q0,.521-.77.951a6.352,6.352,0,0,1-1.879.634A11.751,11.751,0,0,1,9.609-15.648Z" transform="translate(54.139 41.507)" fill="#fff"/>
      <g id="Group_18806" data-name="Group 18806" transform="translate(22.528 0)">
        <circle id="Ellipse_69" data-name="Ellipse 69" cx="16.5" cy="16.5" r="16.5" fill="#fff"/>
        <ellipse id="Ellipse_68" data-name="Ellipse 68" cx="11.5" cy="12" rx="11.5" ry="12" transform="translate(5 5)" fill="#2183c5"/>
      </g>
      <path id="Path_20115" data-name="Path 20115" d="M-12146.385,1740.333l-11.406-28.022,24.2,28.022,3.471,3.47h-16.26Z" transform="translate(12191.908 -1692.648)" fill="#fff"/>
    </g>
    <path id="Rectangle_9170" data-name="Rectangle 9170" d="M0,0H83a0,0,0,0,1,0,0V21a4,4,0,0,1-4,4H4a4,4,0,0,1-4-4V0A0,0,0,0,1,0,0Z" transform="translate(-12063 1532)" fill="#2583c5"/>
    <g id="Group_18800" data-name="Group 18800" transform="translate(-12058.471 1536.873)">
      <path id="Path_20101" data-name="Path 20101" d="M7.94-14.605a3.479,3.479,0,0,1-.7.249,3.079,3.079,0,0,1-.708.083,4.452,4.452,0,0,1-3.757-1.982,8.606,8.606,0,0,1-1.446-5.193,9.319,9.319,0,0,1,1.413-5.388,4.3,4.3,0,0,1,3.691-2.05,3.655,3.655,0,0,1,.8.083,2.93,2.93,0,0,1,.713.259v2.665a3.416,3.416,0,0,0-.675-.244,2.761,2.761,0,0,0-.642-.078,2.239,2.239,0,0,0-1.964,1.259A6.455,6.455,0,0,0,3.9-21.6a6.042,6.042,0,0,0,.775,3.241,2.294,2.294,0,0,0,1.993,1.24,2.349,2.349,0,0,0,.626-.088,3.359,3.359,0,0,0,.642-.254Z" transform="translate(-1.328 29.36)" fill="#fff"/>
      <path id="Path_20102" data-name="Path 20102" d="M5.559-12.639a3.634,3.634,0,0,0-.331-1.654.99.99,0,0,0-.916-.537,1,1,0,0,0-.92.563,3.39,3.39,0,0,0-.318,1.638ZM3.073-11.011v.083a3.749,3.749,0,0,0,.335,1.763,1.044,1.044,0,0,0,.955.616.9.9,0,0,0,.675-.292,2.128,2.128,0,0,0,.451-.887h2a4.395,4.395,0,0,1-1.139,2.4,2.879,2.879,0,0,1-2.12.866,2.854,2.854,0,0,1-2.5-1.429A7.012,7.012,0,0,1,.8-11.752a7.079,7.079,0,0,1,.929-3.891,2.854,2.854,0,0,1,2.5-1.429,2.762,2.762,0,0,1,2.52,1.408A8.172,8.172,0,0,1,7.605-11.5v.49Z" transform="translate(6.256 21.549)" fill="#fff"/>
      <path id="Path_20103" data-name="Path 20103" d="M1.709-6.856V-16.889H3.876v1.78a3.458,3.458,0,0,1,.757-1.468,1.573,1.573,0,0,1,1.144-.5v2.639H5.622a1.374,1.374,0,0,0-1.251.516,5.182,5.182,0,0,0-.331,2.347v4.715Z" transform="translate(12.93 21.935)" fill="#fff"/>
      <path id="Path_20104" data-name="Path 20104" d="M1.323-9v-7.675H.342v-2.1h.981V-21.6H3.8v2.821H4.78v2.1H3.8V-9Z" transform="translate(19.415 24.088)" fill="#fff"/>
      <path id="Path_20105" data-name="Path 20105" d="M1.47-22.295a1.809,1.809,0,0,1,.383-1.173,1.183,1.183,0,0,1,.959-.475,1.179,1.179,0,0,1,.942.48,1.789,1.789,0,0,1,.391,1.168,1.709,1.709,0,0,1-.387,1.132,1.188,1.188,0,0,1-.946.464,1.2,1.2,0,0,1-.959-.454A1.711,1.711,0,0,1,1.47-22.295ZM1.642-9.33V-19.562h2.33V-9.33Z" transform="translate(23.785 24.416)" fill="#fff"/>
      <path id="Path_20106" data-name="Path 20106" d="M4.615-26.708V-24.5q-.052,0-.112,0t-.155,0a.635.635,0,0,0-.6.269,3.912,3.912,0,0,0-.159,1.48v1.6H4.615v1.989H3.592v7.439H1.27v-7.439H.427v-1.989H1.27v-2.5a7.124,7.124,0,0,1,.1-1.418,2.364,2.364,0,0,1,.353-.831,2.042,2.042,0,0,1,.821-.673,2.792,2.792,0,0,1,1.174-.231,3.572,3.572,0,0,1,.383.024Q4.323-26.766,4.615-26.708Z" transform="translate(28.255 26.814)" fill="#fff"/>
      <path id="Path_20107" data-name="Path 20107" d="M1.47-22.3a1.807,1.807,0,0,1,.383-1.172,1.184,1.184,0,0,1,.959-.474,1.179,1.179,0,0,1,.942.479A1.786,1.786,0,0,1,4.144-22.3a1.706,1.706,0,0,1-.387,1.131,1.189,1.189,0,0,1-.946.464,1.2,1.2,0,0,1-.959-.453A1.708,1.708,0,0,1,1.47-22.3ZM1.642-9.344V-19.566h2.33V-9.344Z" transform="translate(32.144 24.43)" fill="#fff"/>
      <path id="Path_20108" data-name="Path 20108" d="M5.73-14.089a2.052,2.052,0,0,0-.533-.352,1.3,1.3,0,0,0-.516-.111,1.2,1.2,0,0,0-1.066.678,3.634,3.634,0,0,0-.4,1.833,3.629,3.629,0,0,0,.4,1.874,1.256,1.256,0,0,0,1.131.658,1.1,1.1,0,0,0,.516-.126,1.594,1.594,0,0,0,.464-.387v2.592A2.567,2.567,0,0,1,4.969-7a2.508,2.508,0,0,1-.838.141A2.67,2.67,0,0,1,1.779-8.232a6.949,6.949,0,0,1-.873-3.747A6.857,6.857,0,0,1,1.783-15.7a2.673,2.673,0,0,1,2.348-1.376,3.471,3.471,0,0,1,.817.1,3.761,3.761,0,0,1,.783.286Z" transform="translate(36.607 21.935)" fill="#fff"/>
      <path id="Path_20109" data-name="Path 20109" d="M5.428-12.022a5.622,5.622,0,0,0-.271-2.016.894.894,0,0,0-.838-.659q-.507,0-.735.633A6.664,6.664,0,0,0,3.356-12a6.661,6.661,0,0,0,.254,2.123q.254.7.77.7.55,0,.8-.679A6.822,6.822,0,0,0,5.428-12.022ZM7.612-6.895H5.428V-8.364a3.544,3.544,0,0,1-.847,1.236,1.568,1.568,0,0,1-1.053.415A2,2,0,0,1,1.683-8.03a9,9,0,0,1-.641-3.82A8.652,8.652,0,0,1,1.7-15.609a2.027,2.027,0,0,1,1.845-1.327,1.528,1.528,0,0,1,1.019.4,3.785,3.785,0,0,1,.864,1.226v-1.52H7.612Z" transform="translate(41.56 21.799)" fill="#fff"/>
      <path id="Path_20110" data-name="Path 20110" d="M1.262-9.122v-7.6H.342v-2.083h.92V-21.6H3.584v2.794H4.5v2.083h-.92v7.6Z" transform="translate(50.018 24.202)" fill="#fff"/>
      <path id="Path_20111" data-name="Path 20111" d="M1.47-22.3a1.805,1.805,0,0,1,.383-1.172,1.184,1.184,0,0,1,.959-.474,1.179,1.179,0,0,1,.942.479A1.785,1.785,0,0,1,4.144-22.3a1.7,1.7,0,0,1-.387,1.13,1.189,1.189,0,0,1-.946.463,1.2,1.2,0,0,1-.959-.453A1.707,1.707,0,0,1,1.47-22.3ZM1.642-9.351V-19.568h2.33V-9.351Z" transform="translate(54.136 24.43)" fill="#fff"/>
      <path id="Path_20112" data-name="Path 20112" d="M4.066-8.763q.576,0,.892-.762a5.863,5.863,0,0,0,.316-2.168,5.826,5.826,0,0,0-.316-2.157q-.316-.762-.892-.762t-.888.756a5.887,5.887,0,0,0-.312,2.163,5.924,5.924,0,0,0,.312,2.173Q3.491-8.763,4.066-8.763Zm3.271-2.909a7.6,7.6,0,0,1-.892,3.963,2.692,2.692,0,0,1-2.379,1.47A2.681,2.681,0,0,1,1.687-7.7,7.655,7.655,0,0,1,.8-11.671a7.577,7.577,0,0,1,.884-3.942,2.682,2.682,0,0,1,2.379-1.46A2.69,2.69,0,0,1,6.45-15.608,7.555,7.555,0,0,1,7.337-11.671Z" transform="translate(58.255 21.324)" fill="#fff"/>
      <path id="Path_20113" data-name="Path 20113" d="M5.571-6.712V-12.84A2.829,2.829,0,0,0,5.4-14.032a.607.607,0,0,0-.585-.325.673.673,0,0,0-.645.382,2.921,2.921,0,0,0-.2,1.259v6H1.641V-16.833H3.808v1.568a3.649,3.649,0,0,1,1.028-1.259,2.157,2.157,0,0,1,1.294-.413,1.453,1.453,0,0,1,1.376.671,5.984,5.984,0,0,1,.387,2.641v6.912Z" transform="translate(65.32 21.799)" fill="#fff"/>
    </g>
  </g>
</svg>
