<svg xmlns="http://www.w3.org/2000/svg" width="24" height="24" viewBox="0 0 24 24">
  <g id="Mail" transform="translate(-236 -188)">
    <g id="brush">
      <path id="Vector" d="M0,0H24V24H0Z" transform="translate(236 188)" fill="none" opacity="0"/>
    </g>
    <g id="Group_21266" data-name="Group 21266" transform="translate(239 194)">
      <path id="Path_729" data-name="Path 729" d="M21.347,10.341,16.66,15.114a.084.084,0,0,0,0,.122l3.28,3.493a.565.565,0,0,1,0,.8.568.568,0,0,1-.8,0l-3.267-3.48a.089.089,0,0,0-.126,0l-.8.81a3.507,3.507,0,0,1-2.5,1.054A3.577,3.577,0,0,1,9.9,16.831l-.767-.78a.089.089,0,0,0-.126,0l-3.267,3.48a.568.568,0,0,1-.8,0,.565.565,0,0,1,0-.8l3.28-3.493a.093.093,0,0,0,0-.122L3.523,10.341a.086.086,0,0,0-.148.061v9.552a1.4,1.4,0,0,0,1.394,1.394H20.1a1.4,1.4,0,0,0,1.394-1.394V10.4A.087.087,0,0,0,21.347,10.341Z" transform="translate(-3.375 -8.803)" fill="#fff"/>
      <path id="Path_730" data-name="Path 730" d="M12.759,15.85a2.368,2.368,0,0,0,1.7-.714L21.3,8.18a1.369,1.369,0,0,0-.862-.3H5.088a1.36,1.36,0,0,0-.862.3l6.834,6.956A2.368,2.368,0,0,0,12.759,15.85Z" transform="translate(-3.699 -7.875)" fill="#fff"/>
    </g>
  </g>
</svg>
