<svg xmlns="http://www.w3.org/2000/svg" width="24" height="24" viewBox="0 0 24 24">
  <g id="youtube" transform="translate(-236 -188)">
    <g id="brush">
      <path id="Vector" d="M0,0H24V24H0Z" transform="translate(236 188)" fill="none" opacity="0"/>
    </g>
    <path id="Icon_awesome-youtube" data-name="Icon awesome-youtube" d="M20.553,6.691a2.5,2.5,0,0,0-1.761-1.772C17.238,4.5,11.009,4.5,11.009,4.5s-6.229,0-7.782.419A2.5,2.5,0,0,0,1.466,6.691a26.256,26.256,0,0,0-.416,4.826,26.256,26.256,0,0,0,.416,4.826,2.466,2.466,0,0,0,1.761,1.744c1.553.419,7.782.419,7.782.419s6.229,0,7.782-.419a2.466,2.466,0,0,0,1.761-1.744,26.256,26.256,0,0,0,.416-4.826,26.256,26.256,0,0,0-.416-4.826ZM8.972,14.479V8.555l5.206,2.962L8.972,14.479Z" transform="translate(236.95 188.5)" fill="#fff"/>
  </g>
</svg>
