<svg id="About" xmlns="http://www.w3.org/2000/svg" xmlns:xlink="http://www.w3.org/1999/xlink" width="78.691" height="61.478" viewBox="0 0 78.691 61.478">
  <defs>
    <linearGradient id="linear-gradient" x1="0.5" x2="0.5" y2="1" gradientUnits="objectBoundingBox">
      <stop offset="0" stop-color="#e9372f"/>
      <stop offset="0.51" stop-color="#f3703a"/>
      <stop offset="1" stop-color="#f79d53"/>
    </linearGradient>
  </defs>
  <path id="Path_37529" data-name="Path 37529" d="M71.919,59.764a1.162,1.162,0,0,1-1.23-1.23V14.148A3.623,3.623,0,0,0,67,10.459H11.548a3.623,3.623,0,0,0-3.689,3.689V58.535a1.162,1.162,0,0,1-1.23,1.23,1.162,1.162,0,0,1-1.23-1.23V14.148A6.088,6.088,0,0,1,11.548,8H67a6.088,6.088,0,0,1,6.148,6.148V58.535A1.162,1.162,0,0,1,71.919,59.764Z" transform="translate(0.01 -8)" fill="url(#linear-gradient)"/>
  <path id="Path_37530" data-name="Path 37530" d="M73.052,20.938H7.64a1.23,1.23,0,1,1,0-2.459H73.052a1.23,1.23,0,1,1,0,2.459Zm-37.87-5.779H15.017a1.162,1.162,0,0,1-1.23-1.23,1.162,1.162,0,0,1,1.23-1.23H35.182a1.162,1.162,0,0,1,1.23,1.23A1.162,1.162,0,0,1,35.182,15.159Zm17.706,0h-.738a1.162,1.162,0,0,1-1.23-1.23,1.162,1.162,0,0,1,1.23-1.23h.738a1.162,1.162,0,0,1,1.23,1.23A1.162,1.162,0,0,1,52.887,15.159Zm6.517,0h-.738a1.162,1.162,0,0,1-1.23-1.23,1.162,1.162,0,0,1,1.23-1.23H59.4a1.162,1.162,0,0,1,1.23,1.23A1.162,1.162,0,0,1,59.4,15.159Zm6.763,0h-.738a1.162,1.162,0,0,1-1.23-1.23,1.162,1.162,0,0,1,1.23-1.23h.738a1.162,1.162,0,0,1,1.23,1.23A1.162,1.162,0,0,1,66.166,15.159ZM76.74,68.4H3.951a1.075,1.075,0,0,1-1.107-.738L1.123,63.48A.739.739,0,0,1,1,62.989V57.456a1.162,1.162,0,0,1,1.23-1.23H32.968a1.23,1.23,0,1,1,0,2.459H3.459v4.058l1.353,3.2H76l1.353-3.2V58.685H47.723a1.23,1.23,0,1,1,0-2.459H78.462a1.162,1.162,0,0,1,1.23,1.23v5.533a.739.739,0,0,1-.123.492l-1.721,4.18a1.075,1.075,0,0,1-1.107.738Z" transform="translate(-1 -6.921)" fill="url(#linear-gradient)"/>
  <path id="Path_37531" data-name="Path 37531" d="M39.525,60.457H29.689A3.623,3.623,0,0,1,26,56.768v-2.09a1.23,1.23,0,0,1,2.459,0v2.09A1.162,1.162,0,0,0,29.689,58h9.836a1.162,1.162,0,0,0,1.23-1.23v-2.09a1.23,1.23,0,0,1,2.459,0v2.09A3.623,3.623,0,0,1,39.525,60.457ZM51.452,45.948A10.574,10.574,0,1,1,62.026,35.374,10.653,10.653,0,0,1,51.452,45.948Zm0-18.689a8.115,8.115,0,1,0,8.115,8.115A8.187,8.187,0,0,0,51.452,27.259Z" transform="translate(4.739 -4.144)" fill="url(#linear-gradient)"/>
  <path id="Path_37532" data-name="Path 37532" d="M54.8,32.261a1.162,1.162,0,0,1-1.23-1.23v-.369a1.23,1.23,0,1,1,2.459,0v.369A1.162,1.162,0,0,1,54.8,32.261Zm.369,9.713a2.316,2.316,0,0,1-.984-.246c-1.353-.861-1.23-3.074-.615-6.885a1.254,1.254,0,1,1,2.459.492,14.657,14.657,0,0,0-.369,4.058,1.227,1.227,0,0,1,1.475.492,1.3,1.3,0,0,1-.246,1.721,6.169,6.169,0,0,1-1.721.369ZM39.311,26.359H12.63a1.23,1.23,0,1,1,0-2.459H39.311a1.23,1.23,0,0,1,0,2.459Zm0,7.008H12.63a1.23,1.23,0,1,1,0-2.459H39.311a1.23,1.23,0,0,1,0,2.459Zm0,6.885H12.63a1.23,1.23,0,1,1,0-2.459H39.311a1.23,1.23,0,0,1,0,2.459Zm0,7.008H12.63a1.23,1.23,0,1,1,0-2.459H39.311a1.23,1.23,0,0,1,0,2.459Z" transform="translate(1.387 -4.35)" fill="url(#linear-gradient)"/>
</svg>
