<svg xmlns="http://www.w3.org/2000/svg" width="123.073" height="123.073" viewBox="0 0 123.073 123.073">
  <g id="Active_Tenders" transform="translate(-684 -188)">
    <g id="volume-high" transform="translate(684 188)">
      <g id="Group_24680" data-name="Group 24680" transform="translate(10.814 9)">
        <path id="Path_37020" data-name="Path 37020" d="M18.871,99.869l48.343,23.276a50.68,50.68,0,0,0,35.672-20.789l6.695-12.806A50.727,50.727,0,1,0,18.871,99.869Z" transform="translate(-10.998 -17.442)" fill="#f2f4f5"/>
        <path id="Path_37021" data-name="Path 37021" d="M325.108,99.066a4.583,4.583,0,0,1,1.839-7.636l-5.1-5.1L312.1,96.08l15.328,15.328a50.715,50.715,0,0,0,3.849-6.244ZM294.159,40.123l15.7,15.7,6.711-4.707-17.7-17.7Z" transform="translate(-235.536 -26.494)" fill="#dd884e"/>
        <path id="Path_37022" data-name="Path 37022" d="M294.159,40.122l9.22,9.22c.183-.007.29,0,.29,0-.5-5.454,5.531-5.3,5.531-5.3-.009-.107-.011-.206-.017-.31L298.866,33.411Z" transform="translate(-235.536 -26.494)" fill="#dd884e"/>
        <path id="Path_37023" data-name="Path 37023" d="M249.748,140.532a6.236,6.236,0,0,0-6.868,1.32l-9.249,9.249a6.236,6.236,0,0,0-1.32,6.868l6.751,6.751L256.5,147.283Z" transform="translate(-186.093 -111.038)" fill="#ffc242"/>
        <path id="Path_37024" data-name="Path 37024" d="M190.03,107.366l9.115-9.115a6.147,6.147,0,0,1,7.253-1.069L193.955,84.739l-17.437,17.437,12.443,12.443A6.147,6.147,0,0,1,190.03,107.366Z" transform="translate(-142.25 -67.195)" fill="#fea53d"/>
        <path id="Path_37025" data-name="Path 37025" d="M318.254,108.746c0,.008,0,.016,0,.025a5.968,5.968,0,0,0-4.33,1.878,5.454,5.454,0,0,0-.757,4.722l6.741,6.741a4.141,4.141,0,0,0,5.856-5.856Z" transform="translate(-250.454 -86.232)" fill="#fef156"/>
        <path id="Path_37026" data-name="Path 37026" d="M273.948,66.633,263.741,56.426a4.141,4.141,0,1,0-5.856,5.856L268.944,73.34C267.148,66.376,273.948,66.633,273.948,66.633Z" transform="translate(-205.815 -43.787)" fill="#ffc242"/>
        <path id="Path_37027" data-name="Path 37027" d="M131.9,202.38l15.7,15.7-4.707,6.712-17.7-17.7Z" transform="translate(-101.548 -160.481)" fill="#dd884e"/>
        <path id="Path_37028" data-name="Path 37028" d="M214.34,229.107l-6.577-6.577c-.934-.134-3.86-.4-5.523,1.186a4.409,4.409,0,0,0-1.095,3.907l7.339,7.339a4.141,4.141,0,1,0,5.856-5.856Z" transform="translate(-161.737 -176.376)" fill="#fef156"/>
        <path id="Path_37029" data-name="Path 37029" d="M148.2,166.107a4.153,4.153,0,0,0,0,5.856l10.284,10.284c-.982-6.574,6.63-5.082,6.63-5.082L154.06,166.107A4.152,4.152,0,0,0,148.2,166.107Zm42.785,12.253a5.72,5.72,0,0,1-7.824,7.825l8.05,8.05,7.825-7.825Z" transform="translate(-118.841 -130.76)" fill="#ffc242"/>
        <path id="Path_37030" data-name="Path 37030" d="M299.267,199.663l-6.515-6.515a5.533,5.533,0,1,0-7.824,7.825l6.515,6.515a5.753,5.753,0,0,0,7.824-7.825Zm8.226,12.854a4.386,4.386,0,0,1-.818-5.038l-7.99,7.99a4.141,4.141,0,0,0,5.856,5.856l7.99-7.99A4.386,4.386,0,0,1,307.493,212.517Z" transform="translate(-226.937 -151.881)" fill="#fef156"/>
        <path id="Path_37031" data-name="Path 37031" d="M400.341,261.152a4.153,4.153,0,0,0-5.856,0l-.741.741a4.4,4.4,0,0,0,5.856,5.856l.741-.741A4.153,4.153,0,0,0,400.341,261.152Z" transform="translate(-314.174 -206.128)" fill="#fffbb3"/>
        <path id="Path_37032" data-name="Path 37032" d="M153.481,396.853s-.1.072-.259.207h24.845l-.791-4.508a4.311,4.311,0,0,0-4.246-3.566H152.7C151.291,390.284,148.866,393.425,153.481,396.853Z" transform="translate(-121.85 -308.454)" fill="#efa56d"/>
        <path id="Path_37033" data-name="Path 37033" d="M72.418,388.986H52.594a4.309,4.309,0,0,0-3.568,1.895,50.918,50.918,0,0,0,4.616,6.179h19.3c.159-.135.259-.207.259-.207C68.583,393.425,71.008,390.284,72.418,388.986Z" transform="translate(-41.153 -308.454)" fill="#dd884e"/>
        <path id="Path_37034" data-name="Path 37034" d="M161.406,464.986q.239.215.491.414V471a50.548,50.548,0,0,0,19.093,3.721,51.312,51.312,0,0,0,5.493-.3v-9.436H161.406Z" transform="translate(-130.267 -368.72)" fill="#fef156"/>
        <path id="Path_37035" data-name="Path 37035" d="M122.886,471.167V465.4q-.252-.2-.491-.414H111.687A50.661,50.661,0,0,0,122.886,471.167Z" transform="translate(-90.841 -368.721)" fill="#ffc242"/>
        <path id="Path_37036" data-name="Path 37036" d="M179.036,426.986H154.45s-5.48,3.942,0,8.281h24.585a4.141,4.141,0,1,0,0-8.281Z" transform="translate(-122.82 -338.587)" fill="#f1b788"/>
        <path id="Path_37037" data-name="Path 37037" d="M90.185,426.986H70.449a51.012,51.012,0,0,0,9.108,8.281H90.185C84.705,430.928,90.185,426.986,90.185,426.986Z" transform="translate(-58.141 -338.587)" fill="#efa56d"/>
        <path id="Path_37038" data-name="Path 37038" d="M378.559,60.059l-8.168-8.168a6.555,6.555,0,0,0-3.723,1.743,6,6,0,0,0-1.522,4.723l7.557,7.557a4.141,4.141,0,0,0,5.856-5.856Z" transform="translate(-291.816 -41.148)" fill="#f1b788"/>
        <path id="Path_37039" data-name="Path 37039" d="M327.23,11.02l-9.813-9.813a4.141,4.141,0,0,0-5.856,5.856l10.48,10.48c-.439-5.105,3.15-6.27,5.189-6.523Z" transform="translate(-248.378 0)" fill="#efa56d"/>
        <path id="Path_37040" data-name="Path 37040" d="M153.674,274.556a6.1,6.1,0,0,0-4.632,1.387,5.227,5.227,0,0,0-1.162,4.53l7.241,7.241a4.141,4.141,0,0,0,5.856-5.856Z" transform="translate(-119.486 -217.696)" fill="#f1b788"/>
        <g id="Group_24561" data-name="Group 24561" transform="translate(16.724 45.252)">
          <path id="Path_37041" data-name="Path 37041" d="M92.986,219.783a4.153,4.153,0,0,0,0,5.856l10.7,10.7c-1.023-6.9,5.787-5.925,5.787-5.925L98.842,219.783A4.153,4.153,0,0,0,92.986,219.783Zm71.58,19.353a4.8,4.8,0,0,0-.086,6.907l6.21,6.142a50.475,50.475,0,0,0,2.946-6.754l-7.337-7.337A4.775,4.775,0,0,0,164.566,239.136Z" transform="translate(-91.779 -218.575)" fill="#efa56d"/>
        </g>
      </g>
      <path id="Vector" d="M0,0H123.073V123.073H0Z" fill="none" opacity="0"/>
    </g>
  </g>
</svg>
