<svg xmlns="http://www.w3.org/2000/svg" width="123.073" height="123.073" viewBox="0 0 123.073 123.073">
  <g id="Active_Bid" transform="translate(-684 -188)">
    <g id="volume-high" transform="translate(684 188)">
      <path id="Vector" d="M0,0H123.073V123.073H0Z" fill="none" opacity="0"/>
      <g id="Group_24745" data-name="Group 24745" transform="translate(9.568 11.805)">
        <path id="Path_37176" data-name="Path 37176" d="M103.936,51.968A51.752,51.752,0,0,1,92.552,84.43l0,0c-1.1,1.374-3.715,1.529-4.947,2.783-7.568,7.708-67.841,3.469-69.816,1.532-.189-.185-2.572-.04-2.758-.229a51.967,51.967,0,1,1,88.908-36.55Z" transform="translate(0 0)" fill="#f2f4f5"/>
        <path id="Path_37177" data-name="Path 37177" d="M180.924,392.018l-2.239.94a51.817,51.817,0,0,1-6.011.625q-2.149.1-4.3.02a51.929,51.929,0,0,1-10.526-1.462q-.557-.137-1.11-.286l-8.3-19.754,20.5-8.611Z" transform="translate(-118.307 -289.701)" fill="#f9c5ac"/>
        <path id="Path_37178" data-name="Path 37178" d="M98.542,423.774q-.557-.137-1.11-.286a51.716,51.716,0,0,1-15.72-7.231q-.381-.262-.755-.526a0,0,0,0,1,0,0,52.276,52.276,0,0,1-6.924-5.877l15.862-6.673Z" transform="translate(-59.002 -321.334)" fill="#dae4ea"/>
        <path id="Path_37179" data-name="Path 37179" d="M126.721,408.428a51.7,51.7,0,0,1-28.112-9.5L96.626,394.2a5.7,5.7,0,0,1,3.049-7.468l9.986-4.194a5.7,5.7,0,0,1,7.468,3.051Z" transform="translate(-76.655 -304.526)" fill="#f6f9f9"/>
        <path id="Path_37180" data-name="Path 37180" d="M120.307,393.174a5.7,5.7,0,0,0-7.466-3.047l-9.988,4.194a5.7,5.7,0,0,0-3.5,5.132q-.381-.262-.755-.526a0,0,0,0,1,0,0l-1.983-4.72a5.706,5.706,0,0,1,3.051-7.47l9.986-4.194a5.71,5.71,0,0,1,7.47,3.051Z" transform="translate(-76.648 -304.529)" fill="#dae4ea"/>
        <path id="Path_37181" data-name="Path 37181" d="M238.8,271.352l16.923-12.957-4.856-8.019a6.183,6.183,0,0,0-8.16-2.272l-7.429,3.9s-14.389,3.851-7.891,19.321" transform="translate(-179.885 -197.174)" fill="#efb29a"/>
        <path id="Path_37182" data-name="Path 37182" d="M249.135,248.192l11.376-4.775,10.522,25.069-11.376,4.775Z" transform="translate(-198.56 -194.003)" fill="#d82e3d"/>
        <circle id="Ellipse_1470" data-name="Ellipse 1470" cx="29.49" cy="29.49" r="29.49" transform="translate(17.422 0.008)" fill="#f74352"/>
        <path id="Path_37183" data-name="Path 37183" d="M150.554,76.938a22.758,22.758,0,1,1,12.17-29.8,22.784,22.784,0,0,1-12.17,29.8Z" transform="translate(-94.829 -26.458)" fill="#f6f9f9"/>
        <path id="Path_37184" data-name="Path 37184" d="M150.13,81.79a1.767,1.767,0,0,0-.945,2.314l5.883,14.006a1.767,1.767,0,0,0,3.259-1.369l-5.883-14.006A1.767,1.767,0,0,0,150.13,81.79ZM161.4,77.542l-3.849,1.617a1.767,1.767,0,0,0-.944,2.317s2.206,5.224,2.856,6.774c.794,1.889,2.881,6.809,2.881,6.809a1.767,1.767,0,0,0,2.311.939l.006,0c.116-.049,2.856-1.213,3.944-1.692,4.013-1.769,5.464-6.532,3.451-11.325-2.116-5.039-6.4-7.224-10.656-5.435Zm5.78,13.527q-1.134.5-2.273.98c-.68-1.605-1.687-3.983-2.185-5.168-.416-.99-1.465-3.478-2.171-5.148l2.217-.931c2.845-1.2,4.98,1.048,6.029,3.545C170.273,87.849,169.049,90.247,167.184,91.069Zm-20.378,1.037a5.259,5.259,0,0,0-7.192-5.9l-4.068,1.709a1.767,1.767,0,0,0-.945,2.314l2.709,6.449,0,.01,3.169,7.546a1.768,1.768,0,0,0,2.314.945l.007,0s3.734-1.588,4.765-2.021a5.849,5.849,0,0,0-.763-11.05Zm-5.824-2.641a1.728,1.728,0,1,1,1.338,3.187l-1.485.628-.952.4-1.34-3.191ZM146.2,99.9q-1.573.664-3.145,1.332l-1.8-4.287.952-.4,2.2-.922a2.322,2.322,0,0,1,1.8,4.281Z" transform="translate(-107.167 -61.309)" fill="#fc5b6f"/>
        <path id="Path_37185" data-name="Path 37185" d="M260.126,304.622a51.875,51.875,0,0,1-38.182,19.45,10.791,10.791,0,0,1-3.183-4.237l-7.736-18.422a9.815,9.815,0,0,1,5.241-12.836l28.315-11.892a5.157,5.157,0,0,1,6.685,2.5,5.027,5.027,0,0,1,.473,2.123,5.08,5.08,0,0,1-3.112,4.7c.091-.039.181-.073.272-.1s.185-.063.278-.089c.144-.043.286-.077.432-.108a5.081,5.081,0,0,1,6.06,4.8s0,0,0,0a5.093,5.093,0,0,1-3.112,4.858,5.217,5.217,0,0,1,.55-.195c.146-.045.288-.077.434-.108a5.08,5.08,0,0,1,2.95,9.667A5.046,5.046,0,0,1,260.126,304.622Z" transform="translate(-167.576 -220.19)" fill="#f9c5ac"/>
        <g id="Group_24718" data-name="Group 24718" transform="translate(42.987 56.084)">
          <path id="Path_37186" data-name="Path 37186" d="M252.932,281.308a5.069,5.069,0,0,0-5.533-1.069l-35.642,14.97a9.776,9.776,0,0,1,5.7-6.632l28.314-11.892a5.158,5.158,0,0,1,6.686,2.5A5.048,5.048,0,0,1,252.932,281.308Zm3.932,9.2a5.07,5.07,0,0,0-5.411-.954l-.389.163a1.953,1.953,0,1,1-1.513-3.6l.269-.113c.092-.038.181-.073.272-.1s.185-.064.279-.09q.214-.063.433-.108a5.086,5.086,0,0,1,6.061,4.807Zm3.934,9.365a5.07,5.07,0,0,0-5.411-.954l-.389.163a1.953,1.953,0,1,1-1.513-3.6l.269-.113a5.2,5.2,0,0,1,.551-.194q.214-.063.433-.108a5.086,5.086,0,0,1,6.061,4.807Zm.525,4.746,0,0a52.075,52.075,0,0,1-3.5,3.944,1.951,1.951,0,0,1-.4-3.719l.268-.114a5.386,5.386,0,0,1,.552-.195c.142-.043.286-.075.432-.108a5.053,5.053,0,0,1,2.651.189Z" transform="translate(-211.757 -276.273)" fill="#efb29a"/>
        </g>
      </g>
    </g>
  </g>
</svg>
