<svg xmlns="http://www.w3.org/2000/svg" xmlns:xlink="http://www.w3.org/1999/xlink" width="50.782" height="50.782" viewBox="0 0 50.782 50.782">
  <defs>
    <linearGradient id="linear-gradient" x1="0.5" x2="0.5" y2="1" gradientUnits="objectBoundingBox">
      <stop offset="0" stop-color="#6b1d57"/>
      <stop offset="1" stop-color="#33176c"/>
    </linearGradient>
    <linearGradient id="linear-gradient-2" x1="0.5" x2="0.5" y2="1" gradientUnits="objectBoundingBox">
      <stop offset="0" stop-color="#ffe548"/>
      <stop offset="0.176" stop-color="#ffde50"/>
      <stop offset="0.445" stop-color="#ffca65"/>
      <stop offset="0.771" stop-color="#ffaa87"/>
      <stop offset="1" stop-color="#ff90a4"/>
    </linearGradient>
  </defs>
  <g id="Closing_today" transform="translate(-684 -188)">
    <g id="calendar-remove" transform="translate(684 188)">
      <path id="Vector" d="M0,0H50.782V50.782H0Z" fill="none" opacity="0"/>
      <path id="Vector-2" data-name="Vector" d="M29.012,4.888v-3.3a1.587,1.587,0,1,0-3.174,0V4.761H12.084V1.587a1.587,1.587,0,1,0-3.174,0v3.3C3.2,5.417.426,8.823,0,13.881A1.063,1.063,0,0,0,1.06,15h35.8a1.05,1.05,0,0,0,1.058-1.121C37.5,8.823,34.725,5.417,29.012,4.888Z" transform="translate(6.43 2.645)" fill="url(#linear-gradient)"/>
      <path id="Vector-3" data-name="Vector" d="M38.087,2.137V5.819a2.084,2.084,0,0,1-2.412,2.074,12.924,12.924,0,0,0-1.82-.148A11.658,11.658,0,0,0,22.217,19.382,13.068,13.068,0,0,0,23,22.937a2.112,2.112,0,0,1-2.01,2.793H10.58C3.174,25.73,0,21.5,0,15.15V2.116A2.122,2.122,0,0,1,2.116,0H35.971A2.154,2.154,0,0,1,38.087,2.137Z" transform="translate(6.348 20.8)" fill="url(#linear-gradient-2)"/>
      <path id="Vector-4" data-name="Vector" d="M8.464,0a8.464,8.464,0,1,0,8.464,8.464A8.461,8.461,0,0,0,8.464,0Zm3.386,11.934a1.584,1.584,0,0,1-2.243,0L8.485,10.812,7.321,11.976a1.584,1.584,0,0,1-2.243,0,1.6,1.6,0,0,1,0-2.243L6.242,8.57,5.121,7.448A1.586,1.586,0,1,1,7.363,5.205L8.485,6.327,9.543,5.269a1.586,1.586,0,1,1,2.243,2.243L10.728,8.57l1.121,1.121A1.6,1.6,0,0,1,11.849,11.934Z" transform="translate(31.739 31.739)" fill="#e22357"/>
      <path id="Vector-5" data-name="Vector" d="M2.116,4.234a2.225,2.225,0,0,1-1.5-.614A2.225,2.225,0,0,1,0,2.118,2.225,2.225,0,0,1,.614.616,2.136,2.136,0,0,1,2.539.044,1.345,1.345,0,0,1,2.92.171,1.6,1.6,0,0,1,3.3.362l.317.254a2.225,2.225,0,0,1,.614,1.5,2.225,2.225,0,0,1-.614,1.5L3.3,3.874a1.6,1.6,0,0,1-.381.19,1.345,1.345,0,0,1-.381.127A3.18,3.18,0,0,1,2.116,4.234Z" transform="translate(15.87 27.505)" fill="url(#linear-gradient)"/>
      <path id="Vector-6" data-name="Vector" d="M2.116,4.205a2.225,2.225,0,0,1-1.5-.614A2.225,2.225,0,0,1,0,2.089,2.225,2.225,0,0,1,.614.587a2.215,2.215,0,0,1,3,0,2.225,2.225,0,0,1,.614,1.5,2.225,2.225,0,0,1-.614,1.5A2.225,2.225,0,0,1,2.116,4.205Z" transform="translate(23.275 27.534)" fill="url(#linear-gradient)"/>
      <path id="Vector-7" data-name="Vector" d="M2.116,4.23a2.225,2.225,0,0,1-1.5-.614A2.225,2.225,0,0,1,0,2.114,2.225,2.225,0,0,1,.614.611a2.184,2.184,0,0,1,.7-.444A2.113,2.113,0,0,1,3.618.611a2.225,2.225,0,0,1,.614,1.5,2.225,2.225,0,0,1-.614,1.5A2.225,2.225,0,0,1,2.116,4.23Z" transform="translate(15.87 34.915)" fill="url(#linear-gradient)"/>
    </g>
  </g>
</svg>
