<svg id="Instructions" xmlns="http://www.w3.org/2000/svg" xmlns:xlink="http://www.w3.org/1999/xlink" width="61.478" height="61.478" viewBox="0 0 61.478 61.478">
  <defs>
    <linearGradient id="linear-gradient" x1="0.5" x2="0.5" y2="1" gradientUnits="objectBoundingBox">
      <stop offset="0" stop-color="#e9372f"/>
      <stop offset="0.51" stop-color="#f3703a"/>
      <stop offset="1" stop-color="#f79d53"/>
    </linearGradient>
  </defs>
  <path id="Path_37525" data-name="Path 37525" d="M60.836,19.617H59.668V16.883a.72.72,0,0,0-.72-.72h-3.59a10.173,10.173,0,0,0,.773-3.879,10.289,10.289,0,1,0-19.287,4.95,16.118,16.118,0,0,0-4.107,2.277,16.16,16.16,0,0,0-9.812-3.348H6.524a.72.72,0,0,0-.72.72v2.734H4.642A2.644,2.644,0,0,0,2,22.259V56.417a2.644,2.644,0,0,0,2.642,2.642H21.431A10.7,10.7,0,0,1,29.1,61.972a5.149,5.149,0,0,0,7.276,0,10.678,10.678,0,0,1,7.656-2.913H60.836a2.644,2.644,0,0,0,2.642-2.642V22.259A2.644,2.644,0,0,0,60.836,19.617Zm-15-16.176a8.841,8.841,0,0,1,2.522,17.318.719.719,0,0,0-.44.368L45.836,25.29l-2.082-4.163a.72.72,0,0,0-.44-.368A8.843,8.843,0,0,1,45.836,3.441ZM42.6,22.046l2.589,5.178a.721.721,0,0,0,1.289,0l2.588-5.177A10.317,10.317,0,0,0,54.628,17.6h3.6V53.528H42.547a16.169,16.169,0,0,0-9.091,2.806V20.754a14.642,14.642,0,0,1,4.191-2.28A10.253,10.253,0,0,0,42.6,22.046ZM7.245,17.6H22.925a14.73,14.73,0,0,1,9.09,3.151V56.333a16.165,16.165,0,0,0-9.09-2.806H7.245ZM62.037,56.417a1.2,1.2,0,0,1-1.2,1.2H44.029a12.1,12.1,0,0,0-8.674,3.335,3.8,3.8,0,0,1-5.239,0,12.119,12.119,0,0,0-8.685-3.335H4.642a1.2,1.2,0,0,1-1.2-1.2V22.259a1.2,1.2,0,0,1,1.2-1.2H5.8V54.246a.72.72,0,0,0,.72.72h16.4a14.726,14.726,0,0,1,9.352,3.362.721.721,0,0,0,.917,0,14.722,14.722,0,0,1,9.352-3.362h16.4a.72.72,0,0,0,.72-.72V21.058h1.168a1.2,1.2,0,0,1,1.2,1.2Z" transform="translate(-2 -2)" fill="url(#linear-gradient)"/>
  <path id="Path_37526" data-name="Path 37526" d="M55.419,48.189H42.861a19.931,19.931,0,0,0-6.192.987.72.72,0,1,0,.446,1.37,18.5,18.5,0,0,1,5.746-.915H55.419a.72.72,0,0,0,0-1.441Zm0-5.456H42.861a17.58,17.58,0,0,0-6.225,1.139.72.72,0,0,0,.51,1.348,16.112,16.112,0,0,1,5.715-1.047H55.419a.72.72,0,0,0,0-1.441ZM37.177,39.894a14.468,14.468,0,0,1,5.684-1.175H55.419a.72.72,0,1,0,0-1.441H42.861a15.911,15.911,0,0,0-6.254,1.294.72.72,0,1,0,.571,1.323Zm.03-5.326a13,13,0,0,1,5.654-1.3H55.419a.72.72,0,1,0,0-1.441H42.861a14.457,14.457,0,0,0-6.284,1.449.721.721,0,0,0,.63,1.3ZM28.984,50.546a.72.72,0,1,0,.447-1.37,19.945,19.945,0,0,0-6.192-.986H10.68a.72.72,0,0,0,0,1.441H23.239A18.5,18.5,0,0,1,28.984,50.546Zm-18.3-6.372H23.239a16.1,16.1,0,0,1,5.714,1.046.72.72,0,1,0,.509-1.348,17.547,17.547,0,0,0-6.223-1.139H10.68a.72.72,0,0,0,0,1.441Zm0-5.455H23.239a14.447,14.447,0,0,1,5.683,1.176.72.72,0,1,0,.572-1.323,15.915,15.915,0,0,0-6.254-1.294H10.68a.72.72,0,0,0,0,1.441Zm0-5.456H23.239a13,13,0,0,1,5.653,1.3.721.721,0,0,0,.631-1.3,14.457,14.457,0,0,0-6.284-1.449H10.68a.72.72,0,1,0,0,1.441Zm0-5.454H23.239a11.821,11.821,0,0,1,5.625,1.43.72.72,0,0,0,.687-1.266,13.274,13.274,0,0,0-6.312-1.605H10.68a.72.72,0,0,0,0,1.441Zm0-5.455H23.239a10.866,10.866,0,0,1,5.6,1.556.72.72,0,1,0,.743-1.234,12.307,12.307,0,0,0-6.34-1.763H10.68a.72.72,0,0,0,0,1.441Zm33.469-5.608h4.013a.72.72,0,1,0,0-1.441H46.875V9.765a.72.72,0,0,0-.72-.72H44.673a.72.72,0,1,0,0,1.441h.763V15.3H44.148a.72.72,0,1,0,0,1.441Zm1.5-8.932a.737.737,0,0,0,.51.211.72.72,0,0,0,.663-.451.693.693,0,0,0,0-.548A.718.718,0,0,0,45.647,6.8a.608.608,0,0,0-.154.231.692.692,0,0,0,0,.548.728.728,0,0,0,.154.24Z" transform="translate(-2.314 -2.181)" fill="url(#linear-gradient)"/>
</svg>
