<svg id="Newsletters" xmlns="http://www.w3.org/2000/svg" xmlns:xlink="http://www.w3.org/1999/xlink" width="61.478" height="61.478" viewBox="0 0 61.478 61.478">
  <defs>
    <linearGradient id="linear-gradient" x1="0.5" x2="0.5" y2="1" gradientUnits="objectBoundingBox">
      <stop offset="0" stop-color="#e9372f"/>
      <stop offset="0.51" stop-color="#f3703a"/>
      <stop offset="1" stop-color="#f79d53"/>
    </linearGradient>
  </defs>
  <path id="Path_37527" data-name="Path 37527" d="M60.577,10.807h-2.7V8.1a.9.9,0,0,0-.9-.9h-2.7V4.5a.9.9,0,0,0-.9-.9h-2.7V.9a.9.9,0,0,0-.9-.9H.9A.9.9,0,0,0,0,.9V55.174a6.311,6.311,0,0,0,6.3,6.3h48.87a6.311,6.311,0,0,0,6.3-6.3V11.707a.9.9,0,0,0-.9-.9ZM6.3,59.676a4.508,4.508,0,0,1-4.5-4.5V1.8H48.87V55.174a6.285,6.285,0,0,0,1.9,4.5Zm53.373-4.5a4.5,4.5,0,0,1-9.006,0V5.4h1.8V51.571a.9.9,0,0,0,1.8,0V9.005h1.8V55.174a.9.9,0,0,1-1.8,0,.9.9,0,1,0-1.8,0,2.7,2.7,0,0,0,5.4,0V12.608h1.8Z" transform="translate(0)" fill="url(#linear-gradient)"/>
  <path id="Path_37528" data-name="Path 37528" d="M86.084,60.01a.9.9,0,0,0-1.036.74l-.826,4.958L83.083,64a.9.9,0,0,0-1.5,0l-1.138,1.708L79.62,60.75a.9.9,0,0,0-1.777.3l1.2,7.2a.9.9,0,0,0,1.638.351l1.652-2.478L83.986,68.6a.9.9,0,0,0,1.638-.351l1.2-7.2a.9.9,0,0,0-.74-1.036Zm5.609,3.6c-1.459-.253-1.654-.413-1.654-.913,0-.858,1.25-.9,1.5-.9.754,0,1.328.254,1.462.648a.9.9,0,1,0,1.7-.583A3.124,3.124,0,0,0,91.539,60c-1.944,0-3.3,1.111-3.3,2.7,0,2.142,1.97,2.483,3.148,2.687,1.46.253,1.655.413,1.655.914,0,.858-1.25.9-1.5.9-.754,0-1.328-.255-1.462-.649a.9.9,0,1,0-1.7.582A3.123,3.123,0,0,0,91.539,69c1.944,0,3.3-1.111,3.3-2.7C94.841,64.158,92.87,63.817,91.693,63.613ZM75.529,65.4a.9.9,0,1,0,0-1.8h-3.9V61.8h3.9a.9.9,0,0,0,0-1.8h-4.8a.9.9,0,0,0-.9.9v7.2a.9.9,0,0,0,.9.9h4.8a.9.9,0,1,0,0-1.8h-3.9V65.4ZM67.124,60a.9.9,0,0,0-.9.9v4.23L63.071,60.4a.9.9,0,0,0-1.65.5v7.2a.9.9,0,0,0,1.8,0v-4.23l3.153,4.73a.9.9,0,0,0,1.65-.5V60.9A.9.9,0,0,0,67.124,60Zm28.237,43.226H81.733a.9.9,0,1,0,0,1.8H95.362a.9.9,0,1,0,0-1.8Zm0-16.21H81.733a.9.9,0,0,0-.9.9v3.6a.9.9,0,0,0,1.8,0v-2.7H94.461v9.006H82.634v-2.7a.9.9,0,1,0-1.8,0v3.6a.9.9,0,0,0,.9.9H95.362a.9.9,0,0,0,.9-.9V87.915A.9.9,0,0,0,95.362,87.014Zm0-5.4H81.733a.9.9,0,1,0,0,1.8H95.362a.9.9,0,1,0,0-1.8Zm0-5.4H81.733a.9.9,0,1,0,0,1.8H95.362a.9.9,0,1,0,0-1.8ZM74.529,103.224H60.9a.9.9,0,0,0,0,1.8H74.529a.9.9,0,1,0,0-1.8Zm0-5.4H60.9a.9.9,0,1,0,0,1.8H74.529a.9.9,0,1,0,0-1.8Zm0-5.4H60.9a.9.9,0,0,0,0,1.8H74.529a.9.9,0,0,0,0-1.8Zm0-10.807a.9.9,0,0,0,.9-.9v-3.6a.9.9,0,0,0-.9-.9H60.9a.9.9,0,0,0-.9.9V87.915a.9.9,0,0,0,.9.9H74.529a.9.9,0,0,0,.9-.9v-3.6a.9.9,0,1,0-1.8,0v2.7H61.8V78.009H73.628v2.7A.9.9,0,0,0,74.529,81.611ZM95.362,70.8H60.9a.9.9,0,0,0,0,1.8H95.362a.9.9,0,1,0,0-1.8Z" transform="translate(-52.796 -52.793)" fill="url(#linear-gradient)"/>
</svg>
