<svg xmlns="http://www.w3.org/2000/svg" width="123.073" height="123.073" viewBox="0 0 123.073 123.073">
  <g id="Tender_Opening_Today" transform="translate(-683.814 -188.074)">
    <g id="volume-high" transform="translate(684 188)">
      <path id="Vector" d="M0,0H123.073V123.073H0Z" transform="translate(-0.186 0.074)" fill="none" opacity="0"/>
      <g id="Group_24681" data-name="Group 24681" transform="translate(8.849 10.072)">
        <path id="Path_37003" data-name="Path 37003" d="M0,52.5A52.5,52.5,0,1,1,85.259,93.532a3.125,3.125,0,0,1-3.683.151,52.535,52.535,0,0,0-58.149,0,3.126,3.126,0,0,1-3.684-.152A52.4,52.4,0,0,1,0,52.5Z" transform="translate(0 0)" fill="#f2f4f5"/>
        <path id="Path_37004" data-name="Path 37004" d="M105.5,430.505a52.255,52.255,0,0,1-26.231-11.131L75,410h31.029a4.168,4.168,0,0,1,4.168,4.168v12.2A4.171,4.171,0,0,1,105.5,430.505Z" transform="translate(-59.616 -325.916)" fill="#f29500"/>
        <path id="Path_37005" data-name="Path 37005" d="M194.038,410h41.608l-4.271,9.375a52.281,52.281,0,0,1-32.849,11.544,53.139,53.139,0,0,1-5.56-.291A10.342,10.342,0,0,1,194.038,410Z" transform="translate(-146.024 -325.916)" fill="#ffa90b"/>
        <path id="Path_37006" data-name="Path 37006" d="M65.622,332.559H33.076A3.076,3.076,0,0,1,30,329.483V313.076A3.076,3.076,0,0,1,33.076,310H65.622a3.076,3.076,0,0,1,3.076,3.076v16.407A3.076,3.076,0,0,1,65.622,332.559Z" transform="translate(-23.848 -246.424)" fill="#ffa90b"/>
        <path id="Path_37007" data-name="Path 37007" d="M239.366,332.559H183.714a3.076,3.076,0,0,1-3.076-3.076V313.076A3.076,3.076,0,0,1,183.714,310h55.652a3.076,3.076,0,0,1,3.076,3.076v16.407A3.076,3.076,0,0,1,239.366,332.559Z" transform="translate(-143.592 -246.424)" fill="#ffb52d"/>
        <path id="Path_37008" data-name="Path 37008" d="M57.183,312.559H19.076A3.076,3.076,0,0,1,16,309.483V293.076A3.076,3.076,0,0,1,19.076,290H57.183a3.076,3.076,0,0,1,3.076,3.076v16.407A3.076,3.076,0,0,1,57.183,312.559Z" transform="translate(-12.719 -230.526)" fill="#ffc14f"/>
        <path id="Path_37009" data-name="Path 37009" d="M197.491,312.559H135.628a11.28,11.28,0,1,1,0-22.559h61.864a3.076,3.076,0,0,1,3.076,3.076v16.407A3.076,3.076,0,0,1,197.491,312.559Z" transform="translate(-98.846 -230.526)" fill="#ffcd71"/>
        <path id="Path_37010" data-name="Path 37010" d="M337.843,119.767l8.266-61.979,26.56,3.542a1.025,1.025,0,0,1,.821,1.386l-3.41,8.825A204.875,204.875,0,0,0,358.108,118.3l-.2,1.467Z" transform="translate(-268.557 -45.937)" fill="#c2eaf2"/>
        <path id="Path_37011" data-name="Path 37011" d="M.069,62.717A1.025,1.025,0,0,1,.89,61.331l26.56-3.542,8.267,61.978H15.647l-.2-1.467A204.877,204.877,0,0,0,3.479,71.542Z" transform="translate(0 -45.938)" fill="#a6e0ec"/>
        <path id="Path_37012" data-name="Path 37012" d="M69.873,39.265a1.025,1.025,0,0,1,1-1.265h74.3a1.025,1.025,0,0,1,1,1.265l-2.213,9.2a204.883,204.883,0,0,0-5.686,47.931v7.642h-60.5V96.394a204.882,204.882,0,0,0-5.685-47.93Z" transform="translate(-55.52 -30.207)" fill="#def4f8"/>
        <path id="Path_37013" data-name="Path 37013" d="M84.134,95.611v8.426H77.772V96.394a204.882,204.882,0,0,0-5.685-47.93l-2.213-9.2a1.025,1.025,0,0,1,1-1.265h5.849l1.147,4.768a225.886,225.886,0,0,1,6.268,52.843Z" transform="translate(-55.52 -30.207)" fill="#c2eaf2"/>
        <path id="Path_37014" data-name="Path 37014" d="M282.559,121.233a1.025,1.025,0,0,1-1.025,1.025H261.025a1.025,1.025,0,1,1,0-2.051h20.508A1.025,1.025,0,0,1,282.559,121.233Zm-1.025,7.178H261.025a1.025,1.025,0,1,0,0,2.051h20.508a1.025,1.025,0,1,0,0-2.051Zm-20.508-2.051h17.038a1.025,1.025,0,1,0,0-2.051H261.025a1.025,1.025,0,1,0,0,2.051Zm20.508,14.356H261.025a1.025,1.025,0,1,0,0,2.051h20.508a1.025,1.025,0,1,0,0-2.051Zm0,8.2H261.025a1.025,1.025,0,1,0,0,2.051h20.508a1.025,1.025,0,1,0,0-2.051Zm-20.508-2.051h17.038a1.025,1.025,0,1,0,0-2.051H261.025a1.025,1.025,0,1,0,0,2.051Z" transform="translate(-206.678 -95.556)" fill="#91aee2"/>
        <path id="Path_37015" data-name="Path 37015" d="M161,124.356H150.748a2.051,2.051,0,0,1-2.051-2.051V112.051A2.051,2.051,0,0,1,150.748,110H161a2.051,2.051,0,0,1,2.051,2.051v10.254A2.051,2.051,0,0,1,161,124.356Z" transform="translate(-118.202 -87.441)" fill="#caed73"/>
        <path id="Path_37016" data-name="Path 37016" d="M165.263,120.386l-8.353,8.353a1.1,1.1,0,0,1-1.506,0L150,123.331a1.025,1.025,0,1,1,1.45-1.45l4.71,4.71,7.656-7.656a1.025,1.025,0,1,1,1.45,1.45Z" transform="translate(-118.997 -94.305)" fill="#6e9e50"/>
        <path id="Path_37017" data-name="Path 37017" d="M163.053,212.051v10.254A2.051,2.051,0,0,1,161,224.356H150.748a2.051,2.051,0,0,1-2.051-2.051V212.051A2.051,2.051,0,0,1,150.748,210H161A2.051,2.051,0,0,1,163.053,212.051Z" transform="translate(-118.202 -166.933)" fill="#fdbcbc"/>
        <path id="Path_37018" data-name="Path 37018" d="M171.027,208.751l-6.043,6.043,3.451,3.451a1.025,1.025,0,1,1-1.45,1.45l-3.451-3.451-3.452,3.451a1.025,1.025,0,1,1-1.45-1.45l3.451-3.451-3.451-3.451a1.025,1.025,0,1,1,1.45-1.45l3.451,3.452,6.043-6.043a1.025,1.025,0,0,1,1.45,1.45Z" transform="translate(-125.861 -164.548)" fill="#cc4646"/>
        <path id="Path_37019" data-name="Path 37019" d="M140.393,354.038a1.538,1.538,0,0,1-1.538,1.538H61.538a1.538,1.538,0,1,1,0-3.076h77.316A1.538,1.538,0,0,1,140.393,354.038Z" transform="translate(-47.695 -280.208)" fill="#f29500"/>
      </g>
    </g>
  </g>
</svg>
