<svg xmlns="http://www.w3.org/2000/svg" width="123.073" height="123.073" viewBox="0 0 123.073 123.073">
  <g id="Tender_Closing_Today" transform="translate(-684 -188.074)">
    <g id="volume-high" transform="translate(684 188)">
      <path id="Vector" d="M0,0H123.073V123.073H0Z" transform="translate(0 0.074)" fill="none" opacity="0"/>
      <g id="Group_24682" data-name="Group 24682" transform="translate(8.316 8.072)">
        <circle id="Ellipse_1457" data-name="Ellipse 1457" cx="53.5" cy="53.5" r="53.5" transform="translate(-0.316 -0.001)" fill="#f2f4f5"/>
        <path id="Path_36894" data-name="Path 36894" d="M41.792,203.091A53.687,53.687,0,0,0,86.756,227.4h39.082a5.882,5.882,0,0,0,5.882-5.882v-69.73H41.792Z" transform="translate(-32.709 -120.477)" fill="#eaf3f9"/>
        <path id="Path_36895" data-name="Path 36895" d="M55.147,151.786H41.792v51.3a54.04,54.04,0,0,0,13.355,14.028Z" transform="translate(-32.709 -120.477)" fill="#c5def3"/>
        <path id="Path_36896" data-name="Path 36896" d="M128.536,36.3H44.974a3.193,3.193,0,0,0-3.183,3.183V60.538h89.928V39.479A3.193,3.193,0,0,0,128.536,36.3Z" transform="translate(-32.708 -29.229)" fill="#fb4a34"/>
        <path id="Path_36897" data-name="Path 36897" d="M58.324,36.3H44.974a3.193,3.193,0,0,0-3.183,3.183V60.538H55.14V39.479A3.193,3.193,0,0,1,58.324,36.3Z" transform="translate(-32.708 -29.229)" fill="#ed3b2e"/>
        <circle id="Ellipse_1458" data-name="Ellipse 1458" cx="3.529" cy="3.529" r="3.529" transform="translate(19.879 14.97)" fill="#db2e26"/>
        <circle id="Ellipse_1459" data-name="Ellipse 1459" cx="3.529" cy="3.529" r="3.529" transform="translate(81.157 14.97)" fill="#db2e26"/>
        <circle id="Ellipse_1460" data-name="Ellipse 1460" cx="3.529" cy="3.529" r="3.529" transform="translate(65.838 14.97)" fill="#db2e26"/>
        <circle id="Ellipse_1461" data-name="Ellipse 1461" cx="3.529" cy="3.529" r="3.529" transform="translate(50.518 14.97)" fill="#db2e26"/>
        <circle id="Ellipse_1462" data-name="Ellipse 1462" cx="3.529" cy="3.529" r="3.529" transform="translate(35.198 14.97)" fill="#db2e26"/>
        <path id="Path_36898" data-name="Path 36898" d="M42.177,157.451l3.8,1.746a1.939,1.939,0,0,0,1.619,0l3.376-1.551a1.939,1.939,0,0,1,1.619,0l3.377,1.551a1.938,1.938,0,0,0,1.619,0l3.376-1.551a1.939,1.939,0,0,1,1.619,0L65.96,159.2a1.939,1.939,0,0,0,1.619,0l3.376-1.551a1.939,1.939,0,0,1,1.619,0l3.376,1.551a1.94,1.94,0,0,0,1.619,0l3.376-1.551a1.939,1.939,0,0,1,1.619,0l3.377,1.551a1.94,1.94,0,0,0,1.619,0l3.376-1.551a1.939,1.939,0,0,1,1.619,0l3.376,1.551a1.939,1.939,0,0,0,1.619,0l3.377-1.551a1.94,1.94,0,0,1,1.619,0l3.377,1.551a1.94,1.94,0,0,0,1.619,0l3.377-1.551a1.94,1.94,0,0,1,1.619,0l3.377,1.551a1.94,1.94,0,0,0,1.619,0l3.378-1.551a1.94,1.94,0,0,1,1.619,0l3.378,1.552a1.939,1.939,0,0,0,1.619,0l3.8-1.746a1.932,1.932,0,0,1,.385-.13v-5.533H41.792v5.533A1.909,1.909,0,0,1,42.177,157.451Z" transform="translate(-32.709 -120.479)" fill="#c5def3"/>
        <path id="Path_36899" data-name="Path 36899" d="M42.177,157.45l3.8,1.746a1.939,1.939,0,0,0,1.619,0l3.376-1.551a1.939,1.939,0,0,1,1.619,0l2.555,1.174v-7.031H41.792v5.533A1.936,1.936,0,0,1,42.177,157.45Z" transform="translate(-32.709 -120.477)" fill="#a3ccef"/>
        <path id="Path_36900" data-name="Path 36900" d="M103.553,29.216a1.721,1.721,0,0,1-1.721-1.721v-14a1.721,1.721,0,0,1,3.442,0v14a1.721,1.721,0,0,1-1.722,1.721Zm15.32,0a1.721,1.721,0,0,1-1.721-1.721v-14a1.721,1.721,0,0,1,3.442,0v14a1.721,1.721,0,0,1-1.721,1.721Zm15.32,0a1.721,1.721,0,0,1-1.721-1.721v-14a1.721,1.721,0,1,1,3.442,0v14a1.721,1.721,0,0,1-1.721,1.721Zm15.32,0a1.721,1.721,0,0,1-1.721-1.721v-14a1.721,1.721,0,1,1,3.442,0v14a1.721,1.721,0,0,1-1.721,1.721Zm15.32,0a1.721,1.721,0,0,1-1.721-1.721v-14a1.721,1.721,0,0,1,3.443,0v14a1.721,1.721,0,0,1-1.721,1.721Z" transform="translate(-80.146 -9.853)" fill="#c5def3"/>
        <path id="Path_36901" data-name="Path 36901" d="M88.468,362.392h5.9a.577.577,0,0,1,.577.577v5.9a.577.577,0,0,1-.577.577h-5.9a.577.577,0,0,1-.577-.577v-5.9A.577.577,0,0,1,88.468,362.392Z" transform="translate(-69.132 -286.875)" fill="#67aae6"/>
        <path id="Path_36902" data-name="Path 36902" d="M91.57,362.392h-3.1a.577.577,0,0,0-.577.577v5.9a.577.577,0,0,0,.577.577h3.1Z" transform="translate(-69.132 -286.875)" fill="#4c98e0"/>
        <path id="Path_36903" data-name="Path 36903" d="M94.371,424.148h-5.9a.577.577,0,0,0-.577.577v4.65q1.084.944,2.218,1.83h4.263a.577.577,0,0,0,.577-.577v-5.9A.578.578,0,0,0,94.371,424.148Z" transform="translate(-69.132 -335.668)" fill="#67aae6"/>
        <path id="Path_36904" data-name="Path 36904" d="M91.57,431.206v-7.057h-3.1a.577.577,0,0,0-.577.577v4.647c.1.086.2.17.3.255.221.19.442.379.667.565.124.1.249.2.373.306q.351.287.707.568l.177.138H91.57Z" transform="translate(-69.132 -335.668)" fill="#4c98e0"/>
        <path id="Path_36905" data-name="Path 36905" d="M148.987,362.392h5.9a.577.577,0,0,1,.577.577v5.9a.577.577,0,0,1-.577.577h-5.9a.577.577,0,0,1-.577-.577v-5.9A.577.577,0,0,1,148.987,362.392Z" transform="translate(-116.947 -286.875)" fill="#67aae6"/>
        <path id="Path_36906" data-name="Path 36906" d="M88.468,238.88h5.9a.577.577,0,0,1,.577.577v5.9a.577.577,0,0,1-.577.577h-5.9a.577.577,0,0,1-.577-.577v-5.9A.577.577,0,0,1,88.468,238.88Z" transform="translate(-69.132 -189.289)" fill="#c5def3"/>
        <path id="Path_36907" data-name="Path 36907" d="M91.57,238.88h-3.1a.577.577,0,0,0-.577.577v5.9a.577.577,0,0,0,.577.577h3.1Z" transform="translate(-69.132 -189.289)" fill="#a3ccef"/>
        <path id="Path_36908" data-name="Path 36908" d="M148.987,238.88h5.9a.577.577,0,0,1,.577.577v5.9a.577.577,0,0,1-.577.577h-5.9a.577.577,0,0,1-.577-.577v-5.9A.577.577,0,0,1,148.987,238.88Z" transform="translate(-116.947 -189.289)" fill="#c5def3"/>
        <path id="Path_36909" data-name="Path 36909" d="M148.987,277.77h5.9a.577.577,0,0,1,.577.577v5.9a.577.577,0,0,1-.577.577h-5.9a.577.577,0,0,1-.577-.577v-5.9A.577.577,0,0,1,148.987,277.77Zm18.606-31.832h-5.9a.577.577,0,0,1-.577-.577v-5.9a.577.577,0,0,1,.577-.577h5.9a.577.577,0,0,1,.577.577v5.9A.577.577,0,0,1,167.593,245.938Zm-5.9,18.869h5.9a.577.577,0,0,1,.577.577v5.9a.577.577,0,0,1-.577.577h-5.9a.577.577,0,0,1-.577-.577v-5.9A.577.577,0,0,1,161.691,264.807Zm0,12.963h5.9a.577.577,0,0,1,.577.577v5.9a.577.577,0,0,1-.577.577h-5.9a.577.577,0,0,1-.577-.577v-5.9A.577.577,0,0,1,161.691,277.77ZM180.3,245.938h-5.9a.577.577,0,0,1-.577-.577v-5.9a.577.577,0,0,1,.577-.577h5.9a.577.577,0,0,1,.577.577v5.9A.577.577,0,0,1,180.3,245.938Zm-5.9,5.906h5.9a.577.577,0,0,1,.577.577v5.9a.577.577,0,0,1-.577.577h-5.9a.577.577,0,0,1-.577-.577v-5.9A.577.577,0,0,1,174.394,251.844Zm0,12.963h5.9a.577.577,0,0,1,.577.577v5.9a.577.577,0,0,1-.577.577h-5.9a.577.577,0,0,1-.577-.577v-5.9A.577.577,0,0,1,174.394,264.807Z" transform="translate(-116.947 -189.29)" fill="#67aae6"/>
        <path id="Path_36910" data-name="Path 36910" d="M270.026,424.148h5.9a.577.577,0,0,1,.577.577v5.9a.577.577,0,0,1-.577.577h-5.9a.577.577,0,0,1-.577-.577v-5.9A.577.577,0,0,1,270.026,424.148Z" transform="translate(-212.579 -335.668)" fill="#c5def3"/>
        <path id="Path_36911" data-name="Path 36911" d="M330.545,300.636h5.9a.577.577,0,0,1,.577.577v5.9a.577.577,0,0,1-.577.577h-5.9a.577.577,0,0,1-.577-.577v-5.9A.577.577,0,0,1,330.545,300.636Zm0,12.963h5.9a.577.577,0,0,1,.577.577v5.9a.577.577,0,0,1-.577.577h-5.9a.577.577,0,0,1-.577-.577v-5.9A.577.577,0,0,1,330.545,313.6Zm12.7-12.963h5.9a.577.577,0,0,1,.577.577v5.9a.577.577,0,0,1-.577.577h-5.9a.577.577,0,0,1-.577-.577v-5.9A.577.577,0,0,1,343.249,300.636Zm0,12.963h5.9a.577.577,0,0,1,.577.577v5.9a.577.577,0,0,1-.577.577h-5.9a.577.577,0,0,1-.577-.577v-5.9A.577.577,0,0,1,343.249,313.6Z" transform="translate(-260.395 -238.082)" fill="#67aae6"/>
        <path id="Path_36912" data-name="Path 36912" d="M330.545,424.148h5.9a.577.577,0,0,1,.577.577v5.9a.577.577,0,0,1-.577.577h-5.9a.577.577,0,0,1-.577-.577v-5.9A.577.577,0,0,1,330.545,424.148Zm12.7,0h5.9a.577.577,0,0,1,.577.577v5.9a.577.577,0,0,1-.577.577h-5.9a.577.577,0,0,1-.577-.577v-5.9A.577.577,0,0,1,343.249,424.148Z" transform="translate(-260.395 -335.668)" fill="#c5def3"/>
        <path id="Path_36913" data-name="Path 36913" d="M115.093,292.939a1.722,1.722,0,0,0-2.434,0l-2.311,2.312-2.312-2.312a1.721,1.721,0,1,0-2.434,2.435l2.311,2.311L105.6,300a1.721,1.721,0,1,0,2.434,2.435l2.312-2.312,2.312,2.312A1.721,1.721,0,1,0,115.093,300l-2.312-2.312,2.312-2.311A1.721,1.721,0,0,0,115.093,292.939Zm-12.7,0a1.722,1.722,0,0,0-2.434,0l-2.312,2.312-2.312-2.312a1.721,1.721,0,1,0-2.434,2.435l2.312,2.311L92.9,300a1.721,1.721,0,0,0,2.434,2.435l2.312-2.312,2.312,2.312A1.721,1.721,0,0,0,102.39,300l-2.311-2.312,2.311-2.311A1.721,1.721,0,0,0,102.39,292.939Zm-12.7,0a1.722,1.722,0,0,0-2.434,0l-2.312,2.312-2.312-2.312a1.721,1.721,0,1,0-2.434,2.435l2.312,2.311L80.195,300a1.721,1.721,0,0,0,2.434,2.435l2.312-2.312,2.312,2.312A1.721,1.721,0,0,0,89.687,300l-2.311-2.312,2.312-2.311A1.722,1.722,0,0,0,89.687,292.939Z" transform="translate(-62.653 -231.602)" fill="#fb4a34"/>
        <path id="Path_36914" data-name="Path 36914" d="M85.09,295.1l-.15.15-2.312-2.312a1.721,1.721,0,0,0-2.434,2.435l2.311,2.311L80.195,300a1.721,1.721,0,1,0,2.434,2.434l2.312-2.311.15.15Z" transform="translate(-62.652 -231.602)" fill="#ed3b2e"/>
        <path id="Path_36915" data-name="Path 36915" d="M342.154,235.929l2.311-2.311a1.721,1.721,0,1,0-2.434-2.434l-2.311,2.312-2.312-2.312a1.721,1.721,0,1,0-2.434,2.434l2.312,2.311-2.312,2.312a1.721,1.721,0,1,0,2.434,2.434l2.312-2.312,2.311,2.312a1.721,1.721,0,0,0,2.434-2.434Zm-10.392-4.746a1.721,1.721,0,0,0-2.434,0l-2.312,2.312-2.312-2.312a1.721,1.721,0,1,0-2.434,2.434l2.312,2.311-2.312,2.312a1.721,1.721,0,1,0,2.434,2.434l2.312-2.312,2.312,2.312a1.721,1.721,0,1,0,2.434-2.434l-2.312-2.312,2.312-2.311A1.721,1.721,0,0,0,331.762,231.183Z" transform="translate(-253.914 -182.809)" fill="#fb4a34"/>
        <path id="Path_36916" data-name="Path 36916" d="M377.374,391.517c-.217,8.665-5.642,13.035-7.2,14.67l-1.793,1.793c-4.553,4.436-4.554,5.054-8.827,7.231a17.753,17.753,0,0,1-6.832,1.588v.008H371.5a5.882,5.882,0,0,0,5.882-5.882V391.517h-.01Z" transform="translate(-278.373 -309.886)" fill="#a3ccef"/>
        <path id="Path_36917" data-name="Path 36917" d="M367.707,475.387V473.1c-3.863,3.823-4.1,4.507-8.153,6.569a17.752,17.752,0,0,1-6.832,1.588v.008H371.5a5.908,5.908,0,0,0,1.044-.094A5.882,5.882,0,0,1,367.707,475.387Z" transform="translate(-278.373 -374.347)" fill="#85bbeb"/>
        <path id="Path_36918" data-name="Path 36918" d="M364.118,399.347a4.192,4.192,0,0,0-4.192,4.192v2.347c0,8.83-7.2,10.921-7.2,10.921a17.377,17.377,0,0,0,7.2-1.562c4.195-2.137,4.2-2.748,8.646-7.082l1.756-1.756c1.556-1.634,7.06-6.054,7.06-14.89C377.386,391.517,374.384,399.347,364.118,399.347Z" transform="translate(-278.375 -309.886)" fill="#c5def3"/>
        <path id="Path_36919" data-name="Path 36919" d="M366.367,431.506a7.579,7.579,0,0,1,2.232-5.381,17.191,17.191,0,0,1-4.481.566,4.192,4.192,0,0,0-4.192,4.192v2.347c0,8.83-7.2,10.921-7.2,10.921a17.378,17.378,0,0,0,7.2-1.562c3.925-2,4.135-2.625,8.013-6.46A7.567,7.567,0,0,1,366.367,431.506Z" transform="translate(-278.375 -337.23)" fill="#a3ccef"/>
      </g>
    </g>
  </g>
</svg>
