<svg id="Training" xmlns="http://www.w3.org/2000/svg" xmlns:xlink="http://www.w3.org/1999/xlink" width="62.148" height="61.478" viewBox="0 0 62.148 61.478">
  <defs>
    <linearGradient id="linear-gradient" y1="0.5" x2="1" y2="0.5" gradientUnits="objectBoundingBox">
      <stop offset="0" stop-color="#e9372f"/>
      <stop offset="0.51" stop-color="#f3703a"/>
      <stop offset="1" stop-color="#f79d53"/>
    </linearGradient>
  </defs>
  <path id="Path_37524" data-name="Path 37524" d="M58.073,2.752H22.508a4.066,4.066,0,0,0-4.06,4.063V34.877H4.823A4.791,4.791,0,0,0,.061,39.632l-.072,8.926a4.178,4.178,0,0,0,1.075,3.1,3.955,3.955,0,0,0,2.393,1.074v8.229a3.276,3.276,0,0,0,3.272,3.272h.323a3.27,3.27,0,0,0,2.425-1.075A3.265,3.265,0,0,0,11.9,64.229h.323A3.278,3.278,0,0,0,15.5,60.957V41.342l1.19-1.166h1.759v6.517a4.065,4.065,0,0,0,4.06,4.06H38.056V62.529H31.381a.85.85,0,1,0,0,1.7H49.2a.85.85,0,1,0,0-1.7H42.529V50.752H58.073a4.066,4.066,0,0,0,4.063-4.06V6.815a4.068,4.068,0,0,0-4.063-4.063ZM16.342,38.476a.85.85,0,0,0-.595.243l-1.693,1.658a.849.849,0,0,0-.255.607V60.957a1.576,1.576,0,0,1-1.576,1.572H11.9a1.574,1.574,0,0,1-1.572-1.572V48.523a.85.85,0,1,0-1.7,0V60.957A1.576,1.576,0,0,1,7.052,62.53H6.729a1.574,1.574,0,0,1-1.572-1.572V39.8a.85.85,0,1,0-1.7,0v11.2a2.173,2.173,0,0,1-1.187-.551,2.577,2.577,0,0,1-.582-1.886l.072-8.925a3.087,3.087,0,0,1,3.062-3.069H19.029a.85.85,0,0,0,.6-.249l3.561-3.561a.924.924,0,0,1,.658-.272h0a.917.917,0,0,1,.654.272l.031.031a.93.93,0,0,1,0,1.31l-4.368,4.368ZM40.829,62.53H39.755V50.752h1.073ZM60.437,46.692a2.364,2.364,0,0,1-2.364,2.36H22.508a2.363,2.363,0,0,1-2.36-2.36V40.176h.372a.85.85,0,0,0,.6-.249l4.617-4.617a2.629,2.629,0,0,0,0-3.714l-.029-.029a2.6,2.6,0,0,0-1.855-.772h0a2.613,2.613,0,0,0-1.86.77l-1.842,1.842V6.815a2.365,2.365,0,0,1,2.36-2.364H58.074a2.366,2.366,0,0,1,2.364,2.364V46.692ZM9.409,34.822A5.909,5.909,0,1,0,3.5,28.911,5.916,5.916,0,0,0,9.409,34.822Zm0-10.119A4.21,4.21,0,1,1,5.2,28.911,4.213,4.213,0,0,1,9.409,24.7Zm21.4-.647h-.083V21.362a.85.85,0,0,0-1.7,0v2.694h-.083a.85.85,0,0,0-.85.85V29a.85.85,0,0,0,.85.85h.083v2.694a.85.85,0,1,0,1.7,0V29.854h.083a.85.85,0,0,0,.85-.85v-4.1A.85.85,0,0,0,30.813,24.056Zm-1.015,4.1v-2.4h.165v2.4ZM34.976,26.4h-.083V23.706a.85.85,0,1,0-1.7,0V26.4h-.083a.85.85,0,0,0-.85.85v4.1a.85.85,0,0,0,.85.85h.083v2.691a.85.85,0,1,0,1.7,0V32.2h.083a.85.85,0,0,0,.85-.85v-4.1a.85.85,0,0,0-.85-.85Zm-1.015,4.1V28.1h.165v2.4Zm5.178-9.063h-.083V18.748a.85.85,0,0,0-1.7,0v2.691h-.079a.85.85,0,0,0-.85.85v4.1a.85.85,0,0,0,.85.85h.079v2.69a.85.85,0,0,0,1.7,0v-2.69h.083a.85.85,0,0,0,.85-.85v-4.1a.85.85,0,0,0-.85-.85Zm-1.011,4.1v-2.4h.162v2.4Zm5.178.262h-.083V23.11a.85.85,0,0,0-1.7,0V25.8h-.083a.85.85,0,0,0-.85.85v4.1a.85.85,0,0,0,.85.85h.083V34.3a.85.85,0,1,0,1.7,0V31.6h.083a.85.85,0,0,0,.85-.85v-4.1a.85.85,0,0,0-.85-.85Zm-1.015,4.1V27.5h.165v2.4Zm5.178-8.595h-.083V18.613a.85.85,0,0,0-1.7,0v2.694H45.6a.85.85,0,0,0-.85.85v4.1a.85.85,0,0,0,.85.85h.083V29.8a.85.85,0,0,0,1.7,0v-2.69h.083a.85.85,0,0,0,.85-.85v-4.1a.85.85,0,0,0-.85-.85Zm-1.015,4.1v-2.4h.165v2.4Zm5.181-2.89h-.083v-2.69a.85.85,0,0,0-1.7,0v2.69h-.083a.85.85,0,0,0-.85.85v4.1a.85.85,0,0,0,.85.85h.083v2.694a.85.85,0,0,0,1.7,0V28.319h.083a.85.85,0,0,0,.85-.85v-4.1a.85.85,0,0,0-.85-.85Zm-1.015,4.1v-2.4h.165v2.4ZM25.676,6.444a.85.85,0,0,1-.85.85h-.585v.585a.85.85,0,0,1-1.7,0V6.444a.85.85,0,0,1,.85-.85h1.435a.85.85,0,0,1,.85.85ZM59.7,6.451V7.886a.85.85,0,0,1-1.7,0V7.3h-.585a.85.85,0,1,1,0-1.7h1.435a.85.85,0,0,1,.85.85ZM24.015,47.064a.85.85,0,0,1-.85.85H21.73a.85.85,0,0,1-.85-.85V45.626a.85.85,0,1,1,1.7,0v.588h.585A.85.85,0,0,1,24.015,47.064Zm34.048-1.438v1.438a.85.85,0,0,1-.85.85H55.778a.85.85,0,0,1,0-1.7h.585v-.588a.85.85,0,1,1,1.7,0Z" transform="translate(0.011 -2.752)" fill="url(#linear-gradient)"/>
</svg>
