<svg id="Capacity_Building" xmlns="http://www.w3.org/2000/svg" xmlns:xlink="http://www.w3.org/1999/xlink" width="70.937" height="69.999" viewBox="0 0 70.937 69.999">
  <defs>
    <linearGradient id="linear-gradient" x1="1.101" y1="-0.722" x2="0.5" y2="1" gradientUnits="objectBoundingBox">
      <stop offset="0" stop-color="#e9372f"/>
      <stop offset="0.51" stop-color="#f3703a"/>
      <stop offset="1" stop-color="#f79d53"/>
    </linearGradient>
  </defs>
  <path id="Path_37137" data-name="Path 37137" d="M80.107,59.613a2.634,2.634,0,1,1-1.864,3.227,2.637,2.637,0,0,1,1.864-3.227ZM81.3,61.28a1.014,1.014,0,1,0,.369,1.387A1.014,1.014,0,0,0,81.3,61.28Zm-58.413-12.5a2.634,2.634,0,1,1,1.864-3.227A2.637,2.637,0,0,1,22.884,48.779Zm-1.19-1.667a1.014,1.014,0,1,0-.37-1.387,1.014,1.014,0,0,0,.37,1.387ZM68.585,77.355A28.153,28.153,0,0,1,22.841,51.318a.81.81,0,0,1,.59-.7,4.555,4.555,0,1,0-4.489-1.2.811.811,0,0,1,.261.747A31.93,31.93,0,0,0,71.365,79.953a.813.813,0,0,1,1.141.007l1.184,1.184,2.294-8.56-8.56,2.293,1.251,1.251a.813.813,0,0,1-.09,1.227ZM24.374,52.016a6.177,6.177,0,1,0-6.836-1.733A33.553,33.553,0,0,0,71.882,81.632l1.655,1.654a.813.813,0,0,0,1.357-.364l3.019-11.266a.812.812,0,0,0-.99-1L65.685,73.664a.812.812,0,0,0-.4,1.368l1.6,1.6A26.531,26.531,0,0,1,24.374,52.016ZM34.406,31.037A28.153,28.153,0,0,1,80.151,57.074a.811.811,0,0,1-.59.7,4.555,4.555,0,1,0,4.489,1.2.811.811,0,0,1-.261-.747A31.93,31.93,0,0,0,31.626,28.439a.813.813,0,0,1-1.141-.007L29.3,27.248l-2.294,8.56,8.56-2.294-1.251-1.251a.813.813,0,0,1,.09-1.227Zm44.211,25.34a6.177,6.177,0,1,0,6.837,1.733A33.553,33.553,0,0,0,31.11,26.76l-1.655-1.654a.812.812,0,0,0-1.356.364l-3.02,11.266a.812.812,0,0,0,.99,1l11.237-3.011a.812.812,0,0,0,.4-1.368l-1.6-1.6A26.531,26.531,0,0,1,78.617,56.376ZM57.679,46.2A10.107,10.107,0,1,1,43.5,48.013,10.107,10.107,0,0,1,57.679,46.2ZM50.01,42.565A11.726,11.726,0,1,1,39.864,55.683,11.726,11.726,0,0,1,50.01,42.565ZM45.776,54.527a.811.811,0,1,1,.984-1.288l2.828,2.156,6.3-4.44a.811.811,0,1,1,.933,1.326l-6.788,4.783a.811.811,0,0,1-.958-.019ZM63.209,69.993h-.09l-1.5-1.5a.813.813,0,0,0-1.055-.08,16.754,16.754,0,0,1-5.479,2.261.812.812,0,0,0-.64.793v2.114l-.064.064H48.608l-.064-.064V71.471a.813.813,0,0,0-.676-.8,16.747,16.747,0,0,1-5.488-2.281.811.811,0,0,0-1.011.109l-1.5,1.5h-.09L35.7,65.91v-.09l1.5-1.5a.813.813,0,0,0,.08-1.055,16.745,16.745,0,0,1-2.261-5.479.812.812,0,0,0-.793-.64H32.106l-.064-.064V51.309l.064-.064h2.115a.813.813,0,0,0,.8-.676A16.744,16.744,0,0,1,37.3,45.082a.811.811,0,0,0-.109-1.011l-1.5-1.5v-.09L39.782,38.4h.09l1.5,1.5a.813.813,0,0,0,1.055.08A16.742,16.742,0,0,1,47.9,37.715a.812.812,0,0,0,.64-.793V34.807l.064-.064h5.775l.064.064v2.114a.813.813,0,0,0,.676.8A16.747,16.747,0,0,1,60.609,40a.811.811,0,0,0,1.011-.109l1.5-1.5h.09l4.083,4.084v.09l-1.5,1.5a.813.813,0,0,0-.08,1.055A16.747,16.747,0,0,1,67.976,50.6a.812.812,0,0,0,.793.64h2.115l.064.064v5.775l-.064.064H68.77a.813.813,0,0,0-.8.676,16.749,16.749,0,0,1-2.281,5.488.811.811,0,0,0,.109,1.011l1.5,1.5v.09Zm5.232-2.935-4.083,4.084a1.69,1.69,0,0,1-2.387,0L60.928,70.1a18.407,18.407,0,0,1-4.856,2.014v1.472a1.691,1.691,0,0,1-1.688,1.688H48.608a1.691,1.691,0,0,1-1.688-1.688V72.113A18.4,18.4,0,0,1,42.064,70.1l-1.043,1.043a1.69,1.69,0,0,1-2.387,0L34.55,67.059a1.691,1.691,0,0,1,0-2.387l1.043-1.043a18.4,18.4,0,0,1-2.014-4.856H32.107a1.691,1.691,0,0,1-1.688-1.688V51.309a1.691,1.691,0,0,1,1.688-1.688h1.473a18.4,18.4,0,0,1,2.014-4.856L34.55,43.721a1.691,1.691,0,0,1,0-2.388l4.084-4.083a1.69,1.69,0,0,1,2.387,0l1.043,1.043a18.4,18.4,0,0,1,4.856-2.014V34.807a1.691,1.691,0,0,1,1.688-1.688h5.775a1.691,1.691,0,0,1,1.688,1.688v1.472a18.406,18.406,0,0,1,4.856,2.014L61.97,37.25a1.69,1.69,0,0,1,2.387,0l4.083,4.083a1.69,1.69,0,0,1,0,2.388L67.4,44.765a18.4,18.4,0,0,1,2.014,4.856h1.473a1.691,1.691,0,0,1,1.688,1.688v5.775a1.691,1.691,0,0,1-1.688,1.688H69.412A18.4,18.4,0,0,1,67.4,63.627l1.043,1.043a1.69,1.69,0,0,1,0,2.387Z" transform="translate(-16.028 -19.196)" fill-rule="evenodd" fill="url(#linear-gradient)"/>
</svg>
