<svg id="Certification_by_World_Bank" data-name="Certification_by_World Bank" xmlns="http://www.w3.org/2000/svg" xmlns:xlink="http://www.w3.org/1999/xlink" width="80.77" height="70" viewBox="0 0 80.77 70">
  <defs>
    <linearGradient id="linear-gradient" x1="-0.732" y1="-0.141" x2="0.5" y2="1" gradientUnits="objectBoundingBox">
      <stop offset="0" stop-color="#e9372f"/>
      <stop offset="0.51" stop-color="#f3703a"/>
      <stop offset="1" stop-color="#f79d53"/>
    </linearGradient>
  </defs>
  <g id="Group_24617" data-name="Group 24617">
    <path id="Path_37078" data-name="Path 37078" d="M74.039,0H6.731A6.739,6.739,0,0,0,0,6.731V55.193a6.739,6.739,0,0,0,6.731,6.731H47.116v6.731a1.346,1.346,0,0,0,2.3.952l4.433-4.433,4.433,4.433a1.346,1.346,0,0,0,2.3-.952V61.923H74.039a6.739,6.739,0,0,0,6.731-6.731V6.731A6.739,6.739,0,0,0,74.039,0ZM43.494,26.338a.716.716,0,0,1-.226-1.136,3.421,3.421,0,0,0,0-4.632.716.716,0,0,1,.227-1.138,3.425,3.425,0,0,0,1.772-4.281.716.716,0,0,1,.643-.964,3.423,3.423,0,0,0,3.277-3.277.716.716,0,0,1,.965-.643,3.431,3.431,0,0,0,4.281-1.773.713.713,0,0,1,1.135-.226,3.422,3.422,0,0,0,4.633,0,.715.715,0,0,1,1.136.227,3.426,3.426,0,0,0,4.279,1.772.716.716,0,0,1,.965.643,3.426,3.426,0,0,0,3.283,3.278.715.715,0,0,1,.643.963,3.423,3.423,0,0,0,1.773,4.281.716.716,0,0,1,.226,1.136,3.421,3.421,0,0,0,0,4.632.716.716,0,0,1-.227,1.138,3.425,3.425,0,0,0-1.772,4.281.716.716,0,0,1-.643.964,3.423,3.423,0,0,0-3.283,3.283.716.716,0,0,1-.965.643,3.43,3.43,0,0,0-4.281,1.773.692.692,0,0,1-.507.4.705.705,0,0,1-.627-.176,3.423,3.423,0,0,0-4.633,0,.707.707,0,0,1-.627.176.7.7,0,0,1-.509-.4,3.425,3.425,0,0,0-4.279-1.772.716.716,0,0,1-.965-.643A3.426,3.426,0,0,0,45.9,31.581a.715.715,0,0,1-.643-.962,3.423,3.423,0,0,0-1.766-4.281Zm14.786,25.21-.4.4V39.289a.713.713,0,0,1,.486.19A3.4,3.4,0,0,0,63.777,38.4a.719.719,0,0,1,.9-.372,3.405,3.405,0,0,0,1.278.193v13.72l-3.087-3.087a1.346,1.346,0,0,0-1.9,0Zm-.4,13.857L54.8,62.318a1.346,1.346,0,0,0-1.9,0L49.808,65.4V38.22a3.405,3.405,0,0,0,1.278-.192.716.716,0,0,1,.9.37,3.365,3.365,0,0,0,2.431,1.921,3.5,3.5,0,0,0,.777.066V55.193a1.346,1.346,0,0,0,2.3.952l.394-.394ZM78.077,55.193a4.038,4.038,0,0,1-4.038,4.038H60.577V53.058l1.346-1.346,4.433,4.433a1.346,1.346,0,0,0,2.3-.952V36.76a3.332,3.332,0,0,0,.618-1.8.72.72,0,0,1,.689-.688,3.408,3.408,0,0,0,3.065-4.589.718.718,0,0,1,.372-.9,3.408,3.408,0,0,0,1.077-5.414.719.719,0,0,1,0-.973A3.407,3.407,0,0,0,73.4,16.984a.716.716,0,0,1-.373-.9A3.408,3.408,0,0,0,69.96,11.5a.72.72,0,0,1-.689-.688,3.407,3.407,0,0,0-4.588-3.068.712.712,0,0,1-.9-.37,3.408,3.408,0,0,0-5.414-1.077.717.717,0,0,1-.972,0,3.407,3.407,0,0,0-5.413,1.077.715.715,0,0,1-.9.372A3.407,3.407,0,0,0,46.5,10.811a.72.72,0,0,1-.689.688,3.408,3.408,0,0,0-3.065,4.589.718.718,0,0,1-.372.9A3.408,3.408,0,0,0,41.293,22.4a.719.719,0,0,1,0,.973,3.407,3.407,0,0,0,1.077,5.413.716.716,0,0,1,.373.9,3.408,3.408,0,0,0,3.065,4.589.721.721,0,0,1,.689.688,3.343,3.343,0,0,0,.618,1.8V59.231H6.731a4.038,4.038,0,0,1-4.038-4.038V6.731A4.038,4.038,0,0,1,6.731,2.692H74.039a4.038,4.038,0,0,1,4.038,4.038Z" fill="url(#linear-gradient)"/>
    <path id="Path_37079" data-name="Path 37079" d="M12.731,45.692a4.038,4.038,0,0,1-4.038-4.038V14.731a4.038,4.038,0,0,1,4.038-4.038H36.962a1.346,1.346,0,1,0,0-2.692H12.731A6.739,6.739,0,0,0,6,14.731V41.654a6.739,6.739,0,0,0,6.731,6.731H38.308a1.346,1.346,0,0,0,0-2.692Z" transform="translate(2.077 2.769)" fill="url(#linear-gradient)"/>
    <path id="Path_37080" data-name="Path 37080" d="M12.346,29.192H31.193a1.346,1.346,0,1,0,0-2.692H12.346a1.346,1.346,0,1,0,0,2.692Zm0-5.385H31.193a1.346,1.346,0,1,0,0-2.692H12.346a1.346,1.346,0,0,0,0,2.692Zm0-5.385H31.193a1.346,1.346,0,1,0,0-2.692H12.346a1.346,1.346,0,1,0,0,2.692ZM11.112,41.846a1.346,1.346,0,0,0,1.773.7,10.348,10.348,0,0,0,3.373-2.058,6.327,6.327,0,0,0,.949-1.212A7.139,7.139,0,0,0,19,40.726a3.649,3.649,0,0,0,3.159.4,3.021,3.021,0,0,0,1.077-.713,6.157,6.157,0,0,0,1.983.8l1.018.241a21.17,21.17,0,0,0,6.4.848,1.346,1.346,0,1,0-.194-2.686,18.589,18.589,0,0,1-5.578-.781l-1.041-.246c-1.256-.289-1.579-.8-1.712-1.152a1.346,1.346,0,0,0-2.6.567.68.68,0,0,1-.3.607,1.241,1.241,0,0,1-.888-.229A5.519,5.519,0,0,1,18,35.457a1.346,1.346,0,0,0-2.606.549,3.483,3.483,0,0,1-1.042,2.567,7.987,7.987,0,0,1-2.544,1.5,1.346,1.346,0,0,0-.7,1.773ZM54.077,30.539A10.769,10.769,0,1,0,43.308,19.769,10.769,10.769,0,0,0,54.077,30.539Zm0-18.846A8.077,8.077,0,1,1,46,19.769,8.077,8.077,0,0,1,54.077,11.692Z" transform="translate(3.807 3.115)" fill="url(#linear-gradient)"/>
  </g>
</svg>
