<svg id="Group_24845" data-name="Group 24845" xmlns="http://www.w3.org/2000/svg" xmlns:xlink="http://www.w3.org/1999/xlink" width="54.713" height="70" viewBox="0 0 54.713 70">
  <defs>
    <linearGradient id="linear-gradient" x1="-0.769" y1="-0.858" x2="0.5" y2="1" gradientUnits="objectBoundingBox">
      <stop offset="0" stop-color="#e9372f"/>
      <stop offset="0.51" stop-color="#f3703a"/>
      <stop offset="1" stop-color="#f79d53"/>
    </linearGradient>
  </defs>
  <path id="Path_37495" data-name="Path 37495" d="M110.32,16.159l-5.237-5.236V3.111A3.115,3.115,0,0,0,101.971,0H58.98a3.076,3.076,0,0,0-3.073,3.073V54.62a3.076,3.076,0,0,0,3.073,3.073h1.738V59.4a3.076,3.076,0,0,0,3.073,3.073h6.665a1.025,1.025,0,0,0,0-2.051H63.79A1.023,1.023,0,0,1,62.768,59.4V18.178a1.025,1.025,0,0,0-2.051,0V55.642H58.98a1.023,1.023,0,0,1-1.022-1.022V3.073A1.023,1.023,0,0,1,58.98,2.051h42.992a1.062,1.062,0,0,1,1.061,1.061v5.76L99.246,5.085a1.026,1.026,0,0,0-.725-.3H63.79a3.076,3.076,0,0,0-3.073,3.073V13.4a1.025,1.025,0,0,0,2.051,0V7.858A1.023,1.023,0,0,1,63.79,6.836H97.5V16.882a1.025,1.025,0,0,0,1.025,1.025l10.049,0V59.4a1.023,1.023,0,0,1-1.022,1.022h-6.586a1.025,1.025,0,0,0,0,2.051h6.586A3.076,3.076,0,0,0,110.62,59.4V16.884A1.026,1.026,0,0,0,110.32,16.159Zm-10.774-.3V8.286l7.573,7.572Z" transform="translate(-55.907)" fill="url(#linear-gradient)"/>
  <path id="Path_37496" data-name="Path 37496" d="M202.124,175.456h-24.53a1.025,1.025,0,0,0,0,2.051h24.53a1.025,1.025,0,0,0,0-2.051Zm0,6.047h-24.53a1.025,1.025,0,0,0,0,2.051h24.53a1.025,1.025,0,0,0,0-2.051Zm0,6.168h-4.846a1.025,1.025,0,0,0,0,2.051h4.846a1.025,1.025,0,0,0,0-2.051Zm-9.672,2.051a1.025,1.025,0,0,0,0-2.051H177.593a1.025,1.025,0,0,0,0,2.051Zm1.166,19.853-2.734,2.733V202.4a1.025,1.025,0,0,0-2.051,0v9.913l-2.734-2.733a1.025,1.025,0,0,0-1.45,1.45l4.484,4.484a1.026,1.026,0,0,0,1.45,0l4.484-4.484a1.025,1.025,0,0,0-1.45-1.45Z" transform="translate(-160.071 -151.468)" fill="url(#linear-gradient)"/>
  <path id="Path_37497" data-name="Path 37497" d="M192.459,323.61a12.878,12.878,0,1,0,12.879,12.878A12.893,12.893,0,0,0,192.459,323.61Zm0,23.706a10.827,10.827,0,1,1,10.828-10.827A10.84,10.84,0,0,1,192.459,347.316Z" transform="translate(-162.672 -279.366)" fill="url(#linear-gradient)"/>
</svg>
