<svg id="eNewsletter" xmlns="http://www.w3.org/2000/svg" xmlns:xlink="http://www.w3.org/1999/xlink" width="69.999" height="70" viewBox="0 0 69.999 70">
  <defs>
    <linearGradient id="linear-gradient" x1="-0.093" y1="-3.145" x2="0.5" y2="1" gradientUnits="objectBoundingBox">
      <stop offset="0" stop-color="#e9372f"/>
      <stop offset="0.51" stop-color="#f3703a"/>
      <stop offset="1" stop-color="#f79d53"/>
    </linearGradient>
    <clipPath id="clip-path">
      <path id="Path_37120" data-name="Path 37120" d="M0-682.665H70v70H0Z" transform="translate(0 682.665)" fill="url(#linear-gradient)"/>
    </clipPath>
  </defs>
  <path id="Path_37106" data-name="Path 37106" d="M17.57-7.962H-8.981A1.019,1.019,0,0,1-10-8.981,1.019,1.019,0,0,1-8.981-10H17.57a1.019,1.019,0,0,1,1.019,1.019A1.019,1.019,0,0,1,17.57-7.962Z" transform="translate(33.633 17.582)" fill="url(#linear-gradient)"/>
  <path id="Path_37107" data-name="Path 37107" d="M23.364-7.962H-8.981A1.019,1.019,0,0,1-10-8.981,1.019,1.019,0,0,1-8.981-10H23.364a1.019,1.019,0,0,1,1.019,1.019A1.019,1.019,0,0,1,23.364-7.962Z" transform="translate(27.808 24.047)" fill="url(#linear-gradient)"/>
  <path id="Path_37108" data-name="Path 37108" d="M23.364-7.962H-8.981A1.019,1.019,0,0,1-10-8.981,1.019,1.019,0,0,1-8.981-10H23.364a1.019,1.019,0,0,1,1.019,1.019A1.019,1.019,0,0,1,23.364-7.962Z" transform="translate(27.808 30.462)" fill="url(#linear-gradient)"/>
  <path id="Path_37109" data-name="Path 37109" d="M7.191-7.962H-8.981A1.019,1.019,0,0,1-10-8.981,1.019,1.019,0,0,1-8.981-10H7.191A1.019,1.019,0,0,1,8.21-8.981,1.019,1.019,0,0,1,7.191-7.962Z" transform="translate(44.05 36.877)" fill="url(#linear-gradient)"/>
  <path id="Path_37110" data-name="Path 37110" d="M7.191-7.962H-8.981A1.019,1.019,0,0,1-10-8.981,1.019,1.019,0,0,1-8.981-10H7.191A1.019,1.019,0,0,1,8.21-8.981,1.019,1.019,0,0,1,7.191-7.962Z" transform="translate(44.05 43.293)" fill="url(#linear-gradient)"/>
  <g id="Group_24623" data-name="Group 24623" clip-path="url(#clip-path)">
    <path id="Path_37111" data-name="Path 37111" d="M-148.473-113.647a1.021,1.021,0,0,1-.618-.208l-15.938-12.077a1.025,1.025,0,0,1-.2-1.437,1.025,1.025,0,0,1,1.437-.2l15.938,12.077a1.025,1.025,0,0,1,.2,1.437A1.024,1.024,0,0,1-148.473-113.647Z" transform="translate(214.294 182.273)" fill="url(#linear-gradient)"/>
    <path id="Path_37112" data-name="Path 37112" d="M-417.428-57.429a1.024,1.024,0,0,1-.818-.406,1.025,1.025,0,0,1,.2-1.437l28.423-21.536a5.015,5.015,0,0,1,6.037,0l8.661,6.562a1.025,1.025,0,0,1,.2,1.437,1.025,1.025,0,0,1-1.437.2l-8.661-6.562a2.92,2.92,0,0,0-3.56,0L-416.81-57.638A1.021,1.021,0,0,1-417.428-57.429Z" transform="translate(421.606 126.055)" fill="url(#linear-gradient)"/>
    <path id="Path_37113" data-name="Path 37113" d="M-23.87,32.169H-79.008a5.687,5.687,0,0,1-5.631-5.729V-4.2l0-.243a5.5,5.5,0,0,1,2.586-4.433l5.542-3.491a1.025,1.025,0,0,1,1.414.321,1.025,1.025,0,0,1-.321,1.414l-5.542,3.491a3.452,3.452,0,0,0-1.63,2.777l0,.164V26.44a3.634,3.634,0,0,0,3.58,3.679H-23.87a3.634,3.634,0,0,0,3.58-3.679V-4.2l0-.163a3.452,3.452,0,0,0-1.63-2.777l-6-3.78a1.025,1.025,0,0,1-.321-1.414,1.025,1.025,0,0,1,1.414-.321l6,3.78a5.5,5.5,0,0,1,2.586,4.433l0,.242V26.44A5.687,5.687,0,0,1-23.87,32.169Z" transform="translate(86.438 37.831)" fill="url(#linear-gradient)"/>
    <path id="Path_37114" data-name="Path 37114" d="M-222.01-172.042a1.021,1.021,0,0,1-.625-.213L-246.975-191a1.025,1.025,0,0,1-.187-1.438,1.025,1.025,0,0,1,1.438-.187l24.34,18.748a1.025,1.025,0,0,1,.187,1.438A1.024,1.024,0,0,1-222.01-172.042Z" transform="translate(250.598 222.171)" fill="url(#linear-gradient)"/>
    <path id="Path_37115" data-name="Path 37115" d="M-246.348,10.8a1.024,1.024,0,0,1-.813-.4,1.025,1.025,0,0,1,.187-1.438l24.34-18.748A1.025,1.025,0,0,1-221.2-9.6a1.025,1.025,0,0,1-.187,1.438l-24.34,18.748A1.021,1.021,0,0,1-246.348,10.8Z" transform="translate(287.759 39.33)" fill="url(#linear-gradient)"/>
    <path id="Path_37116" data-name="Path 37116" d="M-8.975,10.383A1.025,1.025,0,0,1-10,9.358V-8.975A1.025,1.025,0,0,1-8.975-10,1.025,1.025,0,0,1-7.949-8.975V9.358A1.025,1.025,0,0,1-8.975,10.383Z" transform="translate(19.453 25.796)" fill="url(#linear-gradient)"/>
    <path id="Path_37117" data-name="Path 37117" d="M-434.206-309.74a1.025,1.025,0,0,1-1.025-1.025V-341.4a4.851,4.851,0,0,1,.9-2.827h-44.606a2.835,2.835,0,0,0-2.832,2.832v7.145a1.025,1.025,0,0,1-1.025,1.025,1.025,1.025,0,0,1-1.025-1.025v-7.145a4.888,4.888,0,0,1,4.882-4.882h48.579a1.025,1.025,0,0,1,1.025,1.025,1.025,1.025,0,0,1-1.025,1.025,2.83,2.83,0,0,0-2.827,2.827v30.629A1.025,1.025,0,0,1-434.206-309.74Z" transform="translate(493.268 346.272)" fill="url(#linear-gradient)"/>
    <path id="Path_37118" data-name="Path 37118" d="M-4.066-163.98H-8.975A1.025,1.025,0,0,1-10-165.006a1.025,1.025,0,0,1,1.025-1.025h4.909A1.772,1.772,0,0,0-2.3-167.8v-11.18a2.83,2.83,0,0,0-2.826-2.827,1.025,1.025,0,0,1-1.025-1.025,1.025,1.025,0,0,1,1.025-1.025,4.883,4.883,0,0,1,4.877,4.877v11.18A3.825,3.825,0,0,1-4.066-163.98Z" transform="translate(68.037 183.858)" fill="url(#linear-gradient)"/>
    <path id="Path_37119" data-name="Path 37119" d="M-102.794-64.087h-9.777a1.97,1.97,0,0,1-1.967-1.967v-4.53a1.97,1.97,0,0,1,1.967-1.967h9.777a1.97,1.97,0,0,1,1.967,1.967v4.53A1.97,1.97,0,0,1-102.794-64.087Zm-9.694-2.051h9.61V-70.5h-9.61Z" transform="translate(132.237 99.424)" fill="url(#linear-gradient)"/>
  </g>
</svg>
