<svg id="Make_in_India_order" xmlns="http://www.w3.org/2000/svg" xmlns:xlink="http://www.w3.org/1999/xlink" width="94.052" height="70" viewBox="0 0 94.052 70">
  <defs>
    <linearGradient id="linear-gradient" x1="-0.439" y1="-0.222" x2="0.615" y2="1" gradientUnits="objectBoundingBox">
      <stop offset="0" stop-color="#e9372f"/>
      <stop offset="0.51" stop-color="#f3703a"/>
      <stop offset="1" stop-color="#f79d53"/>
    </linearGradient>
  </defs>
  <path id="Path_37102" data-name="Path 37102" d="M97.467,91.817a3.455,3.455,0,0,1-.284.2,3.965,3.965,0,0,1-.671,3C95.656,96.135,94.141,96.7,92,96.7c-.216,0-.441-.008-.671-.019,0,.056-.008.111-.013.166a11.858,11.858,0,0,1-2.427,6.37,12.986,12.986,0,0,1-2.19,9.316,16.012,16.012,0,0,1-4.246,4.284c-1.169.819-2.411,2.052-2.352,6.341a1.124,1.124,0,0,1-2.1.575q-.16-.28-.313-.565l-.994,8.958a8.307,8.307,0,0,1,5.461,3.978,2.078,2.078,0,0,1,.005,2.075,2.032,2.032,0,0,1-1.78,1.028H72.6a2.475,2.475,0,0,1-2.37-1.789l0-.012H66.6a2.962,2.962,0,0,1-2.888-3.618l.581-2.56a.721.721,0,0,0-.033-.423,78.369,78.369,0,0,1-3.631-11.975,37.665,37.665,0,0,0-13.427-.234,9.432,9.432,0,0,1-2.1,4.745l-.039.042-7.291,7.5L41.13,132.3a6.192,6.192,0,0,1,3.589,4.094l.131.481a1.847,1.847,0,0,1-1.781,2.335h-6.69a2.3,2.3,0,0,1-1.807-.885L29.6,131.912a3.623,3.623,0,0,1,.194-4.669,8.852,8.852,0,0,0,1.9-3.337,4.886,4.886,0,0,0-.776-4.743c-.12-.15-.236-.3-.351-.447A16.909,16.909,0,0,1,19.4,126.788a.892.892,0,0,0-.482.294l-.04.048c-.86,1.027-2.874,3.431-2.348,5.549a.356.356,0,0,0,.3.249l2.178.344a2.952,2.952,0,0,1,1.866,1.094l1.577,2a1.525,1.525,0,0,1-1.138,2.467l-9.165.368H12.1a1.124,1.124,0,0,1-1.074-.795l-2.161-7.055a5.2,5.2,0,0,1,.765-4.565l1.779-2.443a32.38,32.38,0,0,0,5.254-11.461,32.446,32.446,0,0,1,2.031-5.784c-3.668.506-7.9-.049-10.977-3.864C4.8,99.621,4.74,96.442,5.2,94.412a11.451,11.451,0,0,1,6.141-7.319,2.809,2.809,0,0,1,1-.266c1.157-1.022,4.88-3.91,8.7-2.553a11.839,11.839,0,0,1,3.144,1.669c.98.693,1.385.979,3.636.494a1.124,1.124,0,0,1,1.314,1.422c-.463,1.546-2.582,4.285-7.29,3.59a22.381,22.381,0,0,0-7.168.123,2.884,2.884,0,0,1-.485.431c-1.551,1.084-3.341,2.766-3.06,4.621.271,1.792,2.339,3.218,4.268,3.835,1.947.623,3.793.487,4.592-.337a12.1,12.1,0,0,1,7.347-3.769,1.7,1.7,0,0,0,1.133-.616c3.347-4.072,8.048-5.6,13.595-4.423a33.6,33.6,0,0,0,8.066.821A10.9,10.9,0,0,0,60.209,84.27c2.765-9.489,9.9-11.969,10.375-12.124a19.878,19.878,0,0,1,5.624-1.084,8.149,8.149,0,0,0,2.8-.508,11.59,11.59,0,0,1,6.365-1.31,6.232,6.232,0,0,1,5.036,2.671c1.421,2.227.928,5.141.576,6.5a7.484,7.484,0,0,1,1.051,1.288,8.874,8.874,0,0,1,.837,1.7c.192.5,1.117,2.29,4.951,4.186a2.174,2.174,0,0,1,1.212,1.882c.024.754.1,3.047-1.566,4.343ZM14.954,88.124a2.85,2.85,0,0,1,.414,1.058,24.77,24.77,0,0,1,6.8.043,5.469,5.469,0,0,0,3.223-.336,5.07,5.07,0,0,1-2.509-1.11,9.6,9.6,0,0,0-2.6-1.386c-2.058-.731-4.268.477-5.57,1.418a2.846,2.846,0,0,1,.237.314Zm51.4,41.862a2.96,2.96,0,0,1,.131,1.738l-.582,2.56a.714.714,0,0,0,.7.872h2.992l-2.471-8.667a20.149,20.149,0,0,0-.8-2.294,20.347,20.347,0,0,1-1.287-4.242c-.44-.145-1.115-.353-1.979-.577A78.82,78.82,0,0,0,66.349,129.986Zm-53.124-4.315-1.779,2.443a2.944,2.944,0,0,0-.433,2.583l1.908,6.226,6.884-.276-.7-.892a.71.71,0,0,0-.449-.262l-2.178-.344a2.594,2.594,0,0,1-2.127-1.928c-.8-3.227,1.727-6.246,2.806-7.535l.04-.048a3.122,3.122,0,0,1,1.683-1.037c6.977-1.665,9.564-6.447,10.225-7.973a25.324,25.324,0,0,1-3.914-11.267.144.144,0,0,0-.075-.12.154.154,0,0,0-.15-.008,25.2,25.2,0,0,1-3.465,1.273,30.318,30.318,0,0,0-2.655,6.915,34.616,34.616,0,0,1-5.621,12.25ZM62.368,84.9a13.141,13.141,0,0,1-12.157,9.483,35.7,35.7,0,0,1-8.613-.869c-4.74-1.007-8.572.222-11.391,3.652a3.932,3.932,0,0,1-2.628,1.424,9.849,9.849,0,0,0-5.974,3.1c-1.424,1.469-4.064,1.819-6.892.915-3.162-1.012-5.441-3.225-5.806-5.64-.25-1.653.24-4.175,3.995-6.8a.6.6,0,0,0-.59-1.037A9.225,9.225,0,0,0,7.4,94.912c-.512,2.248.184,4.575,2.07,6.917,4.084,5.072,10.883,3.026,14.572,1.356a2.407,2.407,0,0,1,3.394,2,23.486,23.486,0,0,0,5.237,12.569,7.145,7.145,0,0,1,1.132,6.936,11.016,11.016,0,0,1-2.343,4.067,1.379,1.379,0,0,0-.08,1.777l4.972,6.409a.04.04,0,0,0,.031.015h6.164a3.956,3.956,0,0,0-2.286-2.59l-3.893-1.64a1.858,1.858,0,0,1-.611-3.009l7.668-7.884c2.382-2.739,1.9-7.727,1.066-11.434a45.531,45.531,0,0,0-2.557-7.8,1.124,1.124,0,1,1,2.048-.928c.2.44,3.565,7.975,3.426,14.608a40.691,40.691,0,0,1,17.348,1.226,13.09,13.09,0,0,1,1.431-6.907,1.124,1.124,0,1,1,1.927,1.158c-.11.186-2.65,4.631.275,11.563a22.347,22.347,0,0,1,.89,2.552L72.393,136.8a.217.217,0,0,0,.208.157h7.44a6.1,6.1,0,0,0-3.957-2.662,2.048,2.048,0,0,1-1.645-2.246l1.536-13.84a19.133,19.133,0,0,1-.134-2.158c-.055-2.5-.1-4.474-5.637-9.872a5.947,5.947,0,0,1-.786-.919,7.62,7.62,0,0,1-1.076-2.4c-4.737-4.727-5.071-13.217-3.776-19.669a31.034,31.034,0,0,1,1.5-5.14A17.584,17.584,0,0,0,62.368,84.9Zm34.419,2.688c-4.251-2.112-5.594-4.275-6.016-5.379a6.72,6.72,0,0,0-.621-1.277A4.01,4.01,0,0,0,86.382,78.9a1.125,1.125,0,0,1-.364-2.219,5.879,5.879,0,0,1,2.955.41,5.748,5.748,0,0,0-.465-3.972,4.08,4.08,0,0,0-3.335-1.635,9.351,9.351,0,0,0-5.13,1.065,9.479,9.479,0,0,1-3.653.755,17.675,17.675,0,0,0-5.051.961c-1.409.526-3.489,3.986-4.568,9.363-.985,4.909-.987,11.066,1.434,15.348a14.331,14.331,0,0,1,1.5-4.461,1.124,1.124,0,1,1,1.958,1.105c-.027.049-2.717,4.931-.381,8.376a3.777,3.777,0,0,0,.494.571c6.2,6.04,6.255,8.659,6.316,11.433a13.062,13.062,0,0,0,.281,2.81,6.832,6.832,0,0,1,2.791-3.835,13.774,13.774,0,0,0,3.657-3.677,10.731,10.731,0,0,0,1.786-8.1,1.12,1.12,0,0,1-.04-.2,15.133,15.133,0,0,0-2.751-5.811,1.124,1.124,0,1,1,1.813-1.329,19.144,19.144,0,0,1,2.468,4.43c1.35-2.858,1.378-6.963.1-8.617A5.2,5.2,0,0,0,86.49,90.3c-5.323-2.829-6.178-7.048-6.213-9.312a6.052,6.052,0,0,0-.362-1.888,3.583,3.583,0,0,1,.119-2.86,4.631,4.631,0,0,1,2.62-2.1,1.124,1.124,0,0,1,.655,2.151,2.422,2.422,0,0,0-1.27.968,1.362,1.362,0,0,0,0,1.1,8.287,8.287,0,0,1,.487,2.593c.025,1.768.715,5.075,5.019,7.362a7.41,7.41,0,0,1,2.436,1.977,7.9,7.9,0,0,1,1.361,4.137c2.281.14,3.094-.407,3.38-.775a1.525,1.525,0,0,0,.264-1.018c-.077,0-.153.008-.232.008a9.492,9.492,0,0,1-2.581-.407,1.124,1.124,0,0,1,.618-2.162c1.557.445,2.7.433,3.295-.034C96.591,89.648,96.821,88.845,96.787,87.588Z" transform="translate(-4.989 -69.206)" fill="url(#linear-gradient)"/>
  <path id="Path_37105" data-name="Path 37105" d="M22.806,26.125a1.351,1.351,0,1,0-1.35,1.351,1.351,1.351,0,0,0,1.35-1.351Z" transform="translate(61.768 -12.83)" fill="url(#linear-gradient)"/>
</svg>
