<svg id="Model_Documents" xmlns="http://www.w3.org/2000/svg" xmlns:xlink="http://www.w3.org/1999/xlink" width="77.136" height="70" viewBox="0 0 77.136 70">
  <defs>
    <linearGradient id="linear-gradient" x1="-0.398" y1="0.25" x2="0.5" y2="1" gradientUnits="objectBoundingBox">
      <stop offset="0" stop-color="#e9372f"/>
      <stop offset="0.51" stop-color="#f3703a"/>
      <stop offset="1" stop-color="#f79d53"/>
    </linearGradient>
  </defs>
  <path id="Path_37081" data-name="Path 37081" d="M36.4,42.17a1.055,1.055,0,0,1,1.055-1.055H51.4a1.055,1.055,0,0,1,0,2.109H37.451A1.055,1.055,0,0,1,36.4,42.17Zm1.055,6.188H59.478a1.055,1.055,0,0,0,0-2.109H37.451a1.055,1.055,0,0,0,0,2.109Zm22.026,3.019H37.451a1.055,1.055,0,0,0,0,2.109H59.478a1.055,1.055,0,0,0,0-2.109Zm0,5.129H37.451a1.055,1.055,0,0,0,0,2.109H59.478a1.055,1.055,0,0,0,0-2.109Zm11,21.59v9.771a5.81,5.81,0,0,1-5.8,5.8H20.669a5.81,5.81,0,0,1-5.8-5.8V62.56L.352,50.009a1.055,1.055,0,0,1-.108-1.488L21.421,24.035a1.055,1.055,0,0,1,1.488-.108L30.5,30.49l13.667-6.23a1.055,1.055,0,0,1,1.4.522L49.7,33.872h6.534a1.056,1.056,0,0,1,.746.309l8.413,8.413a1.055,1.055,0,0,1,.309.746V58.7a10.043,10.043,0,0,1,4.778,19.4ZM63.594,59.226V44.395h-5.47a2.946,2.946,0,0,1-2.942-2.942v-5.47H33.335v21.2L37.3,61.059c.9.879,1.608,1.5,2.551,1.5H59.1A10.089,10.089,0,0,1,63.594,59.226Zm-6.3-17.774a.834.834,0,0,0,.833.833H62.1l-4.811-4.811ZM44.077,26.618,30.812,32.665a1.036,1.036,0,0,1-.123.056L16.544,39.169l6.72,14.744h4.848a4.8,4.8,0,0,1,3.113,1.259V34.927a1.055,1.055,0,0,1,1.055-1.055h15.1ZM14.865,59.772v-.905a4.961,4.961,0,0,1,4.958-4.954h1.123L14.188,39.084a1.055,1.055,0,0,1,.522-1.4l13.674-6.234-6.058-5.24L2.53,49.1ZM68.373,78.6A10.039,10.039,0,0,1,57.857,64.67H39.851a5.771,5.771,0,0,1-4.026-2.1l-4.255-4.16q-.029-.026-.056-.055l-.847-.829c-.931-.906-1.612-1.5-2.555-1.5H19.823a2.849,2.849,0,0,0-2.848,2.844v29a3.7,3.7,0,0,0,3.694,3.694h44.01a3.7,3.7,0,0,0,3.694-3.694Zm6.64-9.958a7.934,7.934,0,1,0-7.934,7.934A7.934,7.934,0,0,0,75.013,68.646Zm-2.564-3.987a1.055,1.055,0,0,0-1.491,0L65.221,70.4,63.2,68.374a1.055,1.055,0,1,0-1.491,1.491l2.767,2.767a1.055,1.055,0,0,0,1.491,0l6.482-6.482a1.055,1.055,0,0,0,0-1.491ZM62.727,84.976H22.62a1.055,1.055,0,0,0,0,2.109H62.727a1.055,1.055,0,0,0,0-2.109ZM22.62,79.882H32.908a1.055,1.055,0,0,0,0-2.109H22.62a1.055,1.055,0,0,0,0,2.109Z" transform="translate(0.013 -23.67)" fill="url(#linear-gradient)"/>
</svg>
