<svg id="MSME_order" xmlns="http://www.w3.org/2000/svg" xmlns:xlink="http://www.w3.org/1999/xlink" width="69.999" height="70" viewBox="0 0 69.999 70">
  <defs>
    <linearGradient id="linear-gradient" x1="-0.978" y1="-0.264" x2="0.5" y2="1" gradientUnits="objectBoundingBox">
      <stop offset="0" stop-color="#e9372f"/>
      <stop offset="0.51" stop-color="#f3703a"/>
      <stop offset="1" stop-color="#f79d53"/>
    </linearGradient>
    <clipPath id="clip-path">
      <path id="Path_37101" data-name="Path 37101" d="M0-682.665H70v70H0Z" transform="translate(0 682.665)" fill="url(#linear-gradient)"/>
    </clipPath>
  </defs>
  <g id="Group_24620" data-name="Group 24620" clip-path="url(#clip-path)">
    <path id="Path_37082" data-name="Path 37082" d="M-276.184-563.751h-30.53a1.025,1.025,0,0,1-1.025-1.025v-50.855a4.341,4.341,0,0,1,2.96-4.118l28.268-9.5a1.026,1.026,0,0,1,.925.139,1.025,1.025,0,0,1,.427.833v63.5A1.025,1.025,0,0,1-276.184-563.751Zm-29.5-2.051h28.479v-61.051l-26.916,9.047a2.292,2.292,0,0,0-1.563,2.174Z" transform="translate(315.979 632.18)" fill="url(#linear-gradient)"/>
    <path id="Path_37083" data-name="Path 37083" d="M-159.365-247.294h-17.183a1.025,1.025,0,0,1-1.025-1.025v-34.454a1.025,1.025,0,0,1,1.025-1.025h18.959a3.3,3.3,0,0,1,3.3,3.3v18.238a1.025,1.025,0,0,1-1.025,1.025,1.025,1.025,0,0,1-1.025-1.025V-280.5a1.25,1.25,0,0,0-1.248-1.248h-17.933v32.4h15.132V-254.7a1.025,1.025,0,0,1,1.025-1.025,1.025,1.025,0,0,1,1.025,1.025v6.379A1.025,1.025,0,0,1-159.365-247.294Z" transform="translate(216.342 315.723)" fill="url(#linear-gradient)"/>
    <path id="Path_37084" data-name="Path 37084" d="M18.663-63.781H-8.975A1.025,1.025,0,0,1-10-64.806v-6.379a1.025,1.025,0,0,1,1.025-1.025H20.2a1.025,1.025,0,0,1,1.025,1.025v4.837A2.57,2.57,0,0,1,18.663-63.781ZM-7.949-65.831H18.663a.517.517,0,0,0,.516-.516V-70.16H-7.949Z" transform="translate(48.769 132.21)" fill="url(#linear-gradient)"/>
    <path id="Path_37085" data-name="Path 37085" d="M-58.943-10h.579A6.742,6.742,0,0,1-51.63-3.265v2.1A1.025,1.025,0,0,1-52.655-.139h-12a1.025,1.025,0,0,1-1.025-1.025v-2.1A6.742,6.742,0,0,1-58.943-10Zm5.263,7.81V-3.265a4.689,4.689,0,0,0-4.684-4.684h-.579a4.689,4.689,0,0,0-4.684,4.684V-2.19Z" transform="translate(121.628 62.189)" fill="url(#linear-gradient)"/>
    <path id="Path_37086" data-name="Path 37086" d="M-15.77-63.781h-6.7a2.55,2.55,0,0,1-1.815-.752,2.55,2.55,0,0,1-.752-1.815v-4.837a1.025,1.025,0,0,1,1.025-1.025h8.239a1.025,1.025,0,0,1,1.025,1.025v6.379A1.025,1.025,0,0,1-15.77-63.781Zm-7.214-6.379v3.812a.514.514,0,0,0,.151.365.514.514,0,0,0,.365.151H-16.8V-70.16Z" transform="translate(25.035 132.21)" fill="url(#linear-gradient)"/>
    <path id="Path_37087" data-name="Path 37087" d="M-74.034-10h.806A1.025,1.025,0,0,1-72.2-8.975v7.81A1.025,1.025,0,0,1-73.228-.139h-8.239a1.025,1.025,0,0,1-1.025-1.025v-.377A8.468,8.468,0,0,1-74.034-10Zm-.219,7.81V-7.945A6.418,6.418,0,0,0-80.41-2.19Z" transform="translate(82.493 62.189)" fill="url(#linear-gradient)"/>
    <path id="Path_37088" data-name="Path 37088" d="M-101.894-262.189H-112.51a1.025,1.025,0,0,1-1.025-1.025v-29.048a1.025,1.025,0,0,1,.625-.944A1.025,1.025,0,0,1-111.8-293l9.6,9.284a4.367,4.367,0,0,1,1.325,3.124v12.544a1.025,1.025,0,0,1-1.025,1.025,1.025,1.025,0,0,1-1.025-1.025v-12.544a2.306,2.306,0,0,0-.7-1.649l-7.866-7.6v25.605h9.591a1.025,1.025,0,0,1,1.025,1.025A1.025,1.025,0,0,1-101.894-262.189Z" transform="translate(152.305 296.163)" fill="url(#linear-gradient)"/>
    <path id="Path_37089" data-name="Path 37089" d="M-8.975-87.213A1.025,1.025,0,0,1-10-88.238v-6.925A3.161,3.161,0,0,1-6.842-98.32h.216a3.16,3.16,0,0,1,3.157,3.157v5.418a1.025,1.025,0,0,1-1.025,1.025A1.025,1.025,0,0,1-5.52-89.745v-5.418a1.107,1.107,0,0,0-1.106-1.106h-.216a1.108,1.108,0,0,0-1.107,1.106v6.925A1.025,1.025,0,0,1-8.975-87.213Z" transform="translate(25.707 99.891)" fill="url(#linear-gradient)"/>
    <path id="Path_37090" data-name="Path 37090" d="M-233.883-.2a1.026,1.026,0,0,1-.972-.7,1.025,1.025,0,0,1,.645-1.3l23.061-7.752a1.025,1.025,0,0,1,1.3.645,1.025,1.025,0,0,1-.645,1.3L-233.556-.253A1.024,1.024,0,0,1-233.883-.2Z" transform="translate(250.616 20.628)" fill="url(#linear-gradient)"/>
    <path id="Path_37091" data-name="Path 37091" d="M-233.883-.2a1.026,1.026,0,0,1-.972-.7,1.025,1.025,0,0,1,.645-1.3l23.061-7.752a1.025,1.025,0,0,1,1.3.645,1.025,1.025,0,0,1-.645,1.3L-233.556-.253A1.024,1.024,0,0,1-233.883-.2Z" transform="translate(250.616 28.008)" fill="url(#linear-gradient)"/>
    <path id="Path_37092" data-name="Path 37092" d="M-233.883-.2a1.026,1.026,0,0,1-.972-.7,1.025,1.025,0,0,1,.645-1.3l23.061-7.752a1.025,1.025,0,0,1,1.3.645,1.025,1.025,0,0,1-.645,1.3L-233.556-.253A1.024,1.024,0,0,1-233.883-.2Z" transform="translate(250.616 35.388)" fill="url(#linear-gradient)"/>
    <path id="Path_37093" data-name="Path 37093" d="M-233.883-.2a1.026,1.026,0,0,1-.972-.7,1.025,1.025,0,0,1,.645-1.3l23.061-7.752a1.025,1.025,0,0,1,1.3.645,1.025,1.025,0,0,1-.645,1.3L-233.556-.253A1.024,1.024,0,0,1-233.883-.2Z" transform="translate(250.616 42.768)" fill="url(#linear-gradient)"/>
    <path id="Path_37094" data-name="Path 37094" d="M-46.105-6.672a1.026,1.026,0,0,1-.972-.7,1.025,1.025,0,0,1,.645-1.3l3.807-1.28a1.025,1.025,0,0,1,1.3.645,1.025,1.025,0,0,1-.645,1.3l-3.807,1.28A1.024,1.024,0,0,1-46.105-6.672Z" transform="translate(62.838 56.621)" fill="url(#linear-gradient)"/>
    <path id="Path_37095" data-name="Path 37095" d="M-151.973-3.023a1.026,1.026,0,0,1-.972-.7,1.025,1.025,0,0,1,.645-1.3l14.662-4.929a1.025,1.025,0,0,1,1.3.645,1.025,1.025,0,0,1-.645,1.3l-14.662,4.929A1.024,1.024,0,0,1-151.973-3.023Z" transform="translate(177.104 50.149)" fill="url(#linear-gradient)"/>
    <path id="Path_37096" data-name="Path 37096" d="M-115.337-120.588h-12.152a1.025,1.025,0,0,1-1.025-1.025v-8.711a2.538,2.538,0,0,1,1.85-2.437l9.544-2.664a2.222,2.222,0,0,1,.6-.082,2.216,2.216,0,0,1,2.212,2.215v11.68A1.025,1.025,0,0,1-115.337-120.588Zm-11.127-2.051h10.1v-10.655a.165.165,0,0,0-.161-.164l-9.59,2.671a.481.481,0,0,0-.351.462Z" transform="translate(144.222 189.017)" fill="url(#linear-gradient)"/>
    <path id="Path_37097" data-name="Path 37097" d="M-103.147-41.873H-113.2a1.731,1.731,0,0,1-1.729-1.729v-2.468A1.731,1.731,0,0,1-113.2-47.8h10.056a1.731,1.731,0,0,1,1.729,1.729V-43.6A1.731,1.731,0,0,1-103.147-41.873Zm-9.734-2.051h9.413v-1.825h-9.413Z" transform="translate(158.513 84.305)" fill="url(#linear-gradient)"/>
    <path id="Path_37098" data-name="Path 37098" d="M-103.147-41.873H-113.2a1.718,1.718,0,0,1-1.223-.507,1.718,1.718,0,0,1-.506-1.223v-2.468A1.731,1.731,0,0,1-113.2-47.8h10.056a1.718,1.718,0,0,1,1.223.507,1.718,1.718,0,0,1,.506,1.223V-43.6A1.731,1.731,0,0,1-103.147-41.873Zm-9.734-2.051h9.413v-1.825h-9.413Z" transform="translate(158.513 92.102)" fill="url(#linear-gradient)"/>
    <path id="Path_37099" data-name="Path 37099" d="M-44.246-41.873h-3.326A1.731,1.731,0,0,1-49.3-43.6v-2.468A1.731,1.731,0,0,1-47.572-47.8h3.326a1.731,1.731,0,0,1,1.729,1.729V-43.6A1.731,1.731,0,0,1-44.246-41.873Zm-3-2.051h2.683v-1.825H-47.25Z" transform="translate(92.882 99.979)" fill="url(#linear-gradient)"/>
    <path id="Path_37100" data-name="Path 37100" d="M-8.975,3.6A1.025,1.025,0,0,1-10,2.575V-8.975A1.025,1.025,0,0,1-8.975-10,1.025,1.025,0,0,1-7.949-8.975V2.575A1.025,1.025,0,0,1-8.975,3.6Z" transform="translate(31.784 64.828)" fill="url(#linear-gradient)"/>
  </g>
</svg>
