<svg id="contant_us" xmlns="http://www.w3.org/2000/svg" width="24" height="24" viewBox="0 0 24 24">
  <g id="call-calling" transform="translate(0 0)">
    <path id="Vector" d="M4.381,5.163a.772.772,0,0,1-.772-.772,3.489,3.489,0,0,0-.992-1.814A2.8,2.8,0,0,0,.772,1.544.772.772,0,1,1,.772,0,4.261,4.261,0,0,1,3.749,1.514,4.73,4.73,0,0,1,5.163,4.381.783.783,0,0,1,4.381,5.163Z" transform="translate(13.241 5.596)" fill="#1a4d57"/>
    <path id="Vector-2" data-name="Vector" d="M7.99,8.771A.772.772,0,0,1,7.218,8,6.454,6.454,0,0,0,.772,1.554.777.777,0,0,1,.762,0a8.009,8.009,0,0,1,8,8A.779.779,0,0,1,7.99,8.771Z" transform="translate(13.233 2.005)" fill="#1a4d57"/>
    <path id="Vector-3" data-name="Vector" d="M9.814,12.24,6.536,15.518q-.541-.481-1.053-.992a28.483,28.483,0,0,1-2.8-3.278A17.871,17.871,0,0,1,.722,7.829,8.443,8.443,0,0,1,0,4.551,5.186,5.186,0,0,1,.361,2.616,4.614,4.614,0,0,1,1.514.942,2.937,2.937,0,0,1,3.6,0a1.884,1.884,0,0,1,.812.18,1.634,1.634,0,0,1,.672.561L7.408,4.02a3.431,3.431,0,0,1,.4.7,1.584,1.584,0,0,1,.14.611,1.361,1.361,0,0,1-.211.712,3.41,3.41,0,0,1-.561.712l-.762.792a.536.536,0,0,0-.16.4.91.91,0,0,0,.03.231c.03.08.06.14.08.2A8.318,8.318,0,0,0,7.3,9.664c.451.521.932,1.053,1.454,1.584C9.112,11.6,9.463,11.939,9.814,12.24Z" transform="translate(2.005 2.005)" fill="#1a4d57" opacity="0.4"/>
    <path id="Vector-4" data-name="Vector" d="M12.4,4.3a2.546,2.546,0,0,1-.15.852,2.448,2.448,0,0,1-.1.241,4.136,4.136,0,0,1-.682,1.022A4.519,4.519,0,0,1,9.824,7.6c-.01,0-.02.01-.03.01a5.064,5.064,0,0,1-1.925.371A8.354,8.354,0,0,1,4.6,7.248,17.608,17.608,0,0,1,1.153,5.263C.762,4.972.371,4.681,0,4.371L3.278,1.093a5.632,5.632,0,0,0,.742.481c.05.02.11.05.18.08a.692.692,0,0,0,.251.04.552.552,0,0,0,.411-.17L5.624.772A3.076,3.076,0,0,1,6.346.211,1.335,1.335,0,0,1,7.057,0a1.6,1.6,0,0,1,.612.13,3.877,3.877,0,0,1,.7.391l3.318,2.356a1.521,1.521,0,0,1,.551.642A2.057,2.057,0,0,1,12.4,4.3Z" transform="translate(9.564 14.015)" fill="#1a4d57"/>
    <path id="Vector-5" data-name="Vector" d="M0,0H24V24H0Z" fill="none" opacity="0"/>
  </g>
</svg>
