<svg xmlns="http://www.w3.org/2000/svg" width="24" height="24" viewBox="0 0 24 24">
  <g id="vuesax_twotone_maximize-circle" data-name="vuesax/twotone/maximize-circle" transform="translate(-302 -636)">
    <g id="maximize-circle">
      <g id="Group_139" data-name="Group 139" opacity="0.4">
        <path id="Vector_Stroke_" data-name="Vector (Stroke)" d="M0,.75A.75.75,0,0,1,.75,0h4A.75.75,0,0,1,5.5.75v4a.75.75,0,0,1-1.5,0V1.5H.75A.75.75,0,0,1,0,.75Z" transform="translate(318.25 638.25)" fill="#292d32"/>
        <path id="Vector_Stroke_2" data-name="Vector (Stroke)" d="M7.28.22a.75.75,0,0,1,0,1.061l-6,6A.75.75,0,0,1,.22,6.22l6-6A.75.75,0,0,1,7.28.22Z" transform="translate(316.25 638.25)" fill="#292d32"/>
        <path id="Vector_Stroke_3" data-name="Vector (Stroke)" d="M.75,0A.75.75,0,0,1,1.5.75V4H4.75a.75.75,0,0,1,0,1.5h-4A.75.75,0,0,1,0,4.75v-4A.75.75,0,0,1,.75,0Z" transform="translate(304.25 652.25)" fill="#292d32"/>
        <path id="Vector_Stroke_4" data-name="Vector (Stroke)" d="M7.28.22a.75.75,0,0,1,0,1.061l-6,6A.75.75,0,0,1,.22,6.22l6-6A.75.75,0,0,1,7.28.22Z" transform="translate(304.25 650.25)" fill="#292d32"/>
      </g>
      <path id="Vector_Stroke_5" data-name="Vector (Stroke)" d="M0,10.75A10.754,10.754,0,0,1,10.75,0a11.077,11.077,0,0,1,2.167.215.75.75,0,0,1-.294,1.471A9.577,9.577,0,0,0,10.75,1.5,9.259,9.259,0,0,0,1.685,12.6a.75.75,0,0,1-1.47.3A10.8,10.8,0,0,1,0,10.75Z" transform="translate(303.25 637.25)" fill="#292d32"/>
      <path id="Vector_Stroke_6" data-name="Vector (Stroke)" d="M12.423.015A.75.75,0,0,1,13.306.6,10.95,10.95,0,0,1,13.52,2.75,10.754,10.754,0,0,1,2.77,13.5,11.077,11.077,0,0,1,.6,13.286.75.75,0,0,1,.9,11.815,9.577,9.577,0,0,0,2.77,12a9.254,9.254,0,0,0,9.25-9.25A9.45,9.45,0,0,0,11.835.9.75.75,0,0,1,12.423.015Z" transform="translate(311.23 645.25)" fill="#292d32"/>
      <path id="Vector" d="M0,0H24V24H0Z" transform="translate(302 636)" fill="none" opacity="0"/>
    </g>
  </g>
</svg>
